<?xml version="1.0" encoding="UTF-8" standalone="no"?>
<!DOCTYPE svg PUBLIC "-//W3C//DTD SVG 1.1//EN" "http://www.w3.org/Graphics/SVG/1.1/DTD/svg11.dtd">
<svg xmlns:dc="http://purl.org/dc/elements/1.1/" xmlns="http://www.w3.org/2000/svg" xmlns:xl="http://www.w3.org/1999/xlink" version="1.1" viewBox="804 485 504 505" width="504" height="505">
  <defs>
    <linearGradient x1="0" x2="1" id="Gradient" gradientUnits="userSpaceOnUse">
      <stop offset="0" stop-color="white"/>
      <stop offset="1" stop-color="white" stop-opacity="0"/>
    </linearGradient>
    <linearGradient id="Obj_Gradient" xl:href="#Gradient" gradientTransform="translate(1055.6836 486.39844) rotate(90) scale(40)"/>
    <linearGradient x1="0" x2="1" id="Gradient_2" gradientUnits="userSpaceOnUse">
      <stop offset="0" stop-color="white" stop-opacity="0"/>
      <stop offset=".17457933" stop-color="white" stop-opacity=".5"/>
      <stop offset="1" stop-color="white"/>
    </linearGradient>
    <linearGradient id="Obj_Gradient_2" xl:href="#Gradient_2" gradientTransform="translate(1055.6836 906.5) rotate(90) scale(80.5)"/>
    <linearGradient x1="0" x2="1" id="Gradient_3" gradientUnits="userSpaceOnUse">
      <stop offset="0" stop-color="white"/>
      <stop offset="1" stop-color="white" stop-opacity="0"/>
    </linearGradient>
    <linearGradient id="Obj_Gradient_3" xl:href="#Gradient_3" gradientTransform="translate(805.6836 736.7634) scale(40)"/>
    <linearGradient x1="0" x2="1" id="Gradient_4" gradientUnits="userSpaceOnUse">
      <stop offset="0" stop-color="white" stop-opacity="0"/>
      <stop offset="1" stop-color="white"/>
    </linearGradient>
    <linearGradient id="Obj_Gradient_4" xl:href="#Gradient_4" gradientTransform="translate(1266 736.3984) scale(40)"/>
    <marker orient="auto" overflow="visible" markerUnits="strokeWidth" id="FilledArrow_Marker" stroke-linejoin="miter" stroke-miterlimit="10" viewBox="-1 -4 10 8" markerWidth="10" markerHeight="8" color="#19854d">
      <g>
        <path d="M 8 0 L 0 -3 L 0 3 Z" fill="currentColor" stroke="currentColor" stroke-width="1"/>
      </g>
    </marker>
    <filter id="Shadow" filterUnits="userSpaceOnUse" x="753.6" y="434.5">
      <feGaussianBlur in="SourceAlpha" result="blur" stdDeviation="1.308"/>
      <feOffset in="blur" result="offset" dx="0" dy="2"/>
      <feFlood flood-color="black" flood-opacity=".5" result="flood"/>
      <feComposite in="flood" in2="offset" operator="in" result="color"/>
      <feMerge>
        <feMergeNode in="color"/>
        <feMergeNode in="SourceGraphic"/>
      </feMerge>
    </filter>
  </defs>
  <g id="Canvas_5" stroke-opacity="1" stroke-dasharray="none" fill-opacity="1" stroke="none" fill="none">
    <title>Canvas 5</title>
    <rect fill="white" x="804" y="485" width="504" height="505"/>
    <g id="Canvas_5_Layer_1">
      <title>Layer 1</title>
      <g id="Line_33">
        <path d="M 885.3964 673.4898 C 879.1527 665.9494 871.3484 657.4632 862 649 C 834.1465 623.7839 805.6836 610.6299 805.6836 610.6299" stroke="#19854d" stroke-linecap="round" stroke-linejoin="round" stroke-width="3"/>
      </g>
      <g id="Line_34">
        <path d="M 1089.6413 840.3984 L 1114 915 L 1137.0079 986.3984" stroke="#19854d" stroke-linecap="round" stroke-linejoin="round" stroke-width="4"/>
      </g>
      <g id="Line_31">
        <line x1="1265.188" y1="873.5625" x2="1305.6836" y2="912.9921" stroke="#19854d" stroke-linecap="round" stroke-linejoin="round" stroke-width="3"/>
      </g>
      <g id="Line_32">
        <path d="M 923.5308 897.2025 C 912.7994 909.3674 899.4183 922.6191 884 934 C 842.4682 964.6563 805.6836 967.3228 805.6836 967.3228" stroke="#19854d" stroke-linecap="round" stroke-linejoin="round" stroke-width="3"/>
      </g>
      <g id="Line_27">
        <path d="M 1168.1439 557.7344 C 1174.1512 547.8489 1182.4903 537.08994 1194 527 C 1228.8492 496.44954 1276.378 486.39844 1276.378 486.39844" stroke="#19854d" stroke-linecap="round" stroke-linejoin="round" stroke-width="2"/>
      </g>
      <g id="Line_30">
        <path d="M 993.9615 557.1182 C 985.5187 545.0712 972.6265 529.27455 955.6836 516 C 923.2968 490.6254 891.3386 486.39844 891.3386 486.39844" stroke="#19854d" stroke-linecap="round" stroke-linejoin="round" stroke-width="2"/>
      </g>
      <g id="Group_65">
        <g id="Graphic_60">
          <rect x="805.6836" y="486.39844" width="500" height="40" fill="url(#Obj_Gradient)"/>
          <rect x="805.6836" y="486.39844" width="500" height="40" stroke="gray" stroke-linecap="round" stroke-linejoin="round" stroke-width="1"/>
        </g>
        <g id="Graphic_61">
          <rect x="805.6836" y="906.5" width="500" height="80.5" fill="url(#Obj_Gradient_2)"/>
          <rect x="805.6836" y="906.5" width="500" height="80.5" stroke="gray" stroke-linecap="round" stroke-linejoin="round" stroke-width="1"/>
        </g>
        <g id="Graphic_62">
          <rect x="805.6836" y="486.39844" width="40" height="500.73" fill="url(#Obj_Gradient_3)"/>
          <rect x="805.6836" y="486.39844" width="40" height="500.73" stroke="gray" stroke-linecap="round" stroke-linejoin="round" stroke-width="1"/>
        </g>
        <g id="Graphic_64">
          <rect x="1266" y="486.03344" width="40" height="500.73" fill="url(#Obj_Gradient_4)"/>
          <rect x="1266" y="486.03344" width="40" height="500.73" stroke="gray" stroke-linecap="round" stroke-linejoin="round" stroke-width="1"/>
        </g>
      </g>
      <g id="Graphic_8">
        <path d="M 874 699.6367 L 889 669.6367 L 919 669.6367 L 934 699.6367 L 919 729.6367 L 889 729.6367 Z" stroke="#19854d" stroke-linecap="round" stroke-linejoin="round" stroke-width="3"/>
      </g>
      <g id="Graphic_10">
        <path d="M 985.6562 575.96484 L 995.6562 555.96484 L 1015.6562 555.96484 L 1025.6562 575.96484 L 1015.6562 595.96484 L 995.6562 595.96484 Z" stroke="#19854d" stroke-linecap="round" stroke-linejoin="round" stroke-width="2"/>
      </g>
      <g id="Graphic_12">
        <path d="M 907.2812 859.1133 L 929.7812 814.1133 L 974.7812 814.1133 L 997.2812 859.1133 L 974.7812 904.1133 L 929.7812 904.1133 Z" stroke="#19854d" stroke-linecap="round" stroke-linejoin="round" stroke-width="5"/>
      </g>
      <g id="Line_22">
        <path d="M 929.8342 687.951 C 970.9968 671.1519 1053.4432 645.0096 1118.3685 672 C 1139.1762 680.65006 1155.9285 693.8197 1169.3894 708.9653 M 1181.1956 723.8451 C 1215.8074 772.6123 1222.5781 832.0742 1222.5781 832.0742" stroke="#19854d" stroke-linecap="round" stroke-linejoin="round" stroke-width="4"/>
      </g>
      <g id="Line_15">
        <line x1="1012.3279" y1="596.96484" x2="1023.585" y2="632.3984" stroke="#19854d" stroke-linecap="round" stroke-linejoin="round" stroke-width="5"/>
      </g>
      <g id="Line_18">
        <path d="M 900.2755 731.1367 C 899.8978 746.1033 901.246 765.0652 907.2812 785 C 911.4517 798.7753 917.2623 811.0402 923.3252 821.4352" stroke="#19854d" stroke-linecap="round" stroke-linejoin="round" stroke-width="4"/>
      </g>
      <g id="Line_19">
        <path d="M 997.3571 864.5517 C 1039.823 866.8516 1102.4127 862.5087 1140.209 824.2483 M 1155.4893 804.5069 C 1201.7278 727.3935 1153.3685 594.2344 1153.3685 594.2344" stroke="#19854d" stroke-linecap="round" stroke-linejoin="round" stroke-width="5"/>
      </g>
      <g id="Line_20">
        <path d="M 988.9408 584.77004 C 973.8309 593.586 951.3613 608.87875 934 630 C 922.9726 643.4156 915.9916 656.7671 911.5751 668.1367" stroke="#19854d" stroke-linecap="round" stroke-linejoin="round" stroke-width="3"/>
      </g>
      <g id="Line_16">
        <path d="M 1125.9578 804.7942 C 1138.9749 811.546 1152.421 816.6652 1164.9942 820.5339" stroke="#19854d" stroke-linecap="round" stroke-linejoin="round" stroke-width="8"/>
      </g>
      <g id="Line_17">
        <path d="M 1239.9705 769.0742 C 1241.3494 751.5657 1240.2343 731.4242 1234 710 C 1222.6609 671.0329 1197.4704 638.41916 1178.2415 617.8425" stroke="#19854d" stroke-linecap="round" stroke-linejoin="round" stroke-width="6"/>
      </g>
      <g id="Graphic_11">
        <path d="M 1118.3685 594.2344 L 1135.8685 559.2344 L 1170.8685 559.2344 L 1188.3685 594.2344 L 1170.8685 629.2344 L 1135.8685 629.2344 Z" fill="white"/>
        <path d="M 1118.3685 594.2344 L 1135.8685 559.2344 L 1170.8685 559.2344 L 1188.3685 594.2344 L 1170.8685 629.2344 L 1135.8685 629.2344 Z" stroke="#19854d" stroke-linecap="round" stroke-linejoin="round" stroke-width="3"/>
      </g>
      <g id="Graphic_14">
        <path d="M 1162.5781 832.0742 L 1192.5781 772.0742 L 1252.5781 772.0742 L 1282.5781 832.0742 L 1252.5781 892.0742 L 1192.5781 892.0742 Z" fill="white"/>
        <path d="M 1162.5781 832.0742 L 1192.5781 772.0742 L 1252.5781 772.0742 L 1282.5781 832.0742 L 1252.5781 892.0742 L 1192.5781 892.0742 Z" stroke="#19854d" stroke-linecap="round" stroke-linejoin="round" stroke-width="6"/>
      </g>
      <g id="Graphic_2">
        <path d="M 955.6836 736.3984 L 1005.6836 636.3984 L 1105.6836 636.3984 L 1155.6836 736.3984 L 1105.6836 836.3984 L 1005.6836 836.3984 Z" fill="white"/>
        <path d="M 955.6836 736.3984 L 1005.6836 636.3984 L 1105.6836 636.3984 L 1155.6836 736.3984 L 1105.6836 836.3984 L 1005.6836 836.3984 Z" stroke="#19854d" stroke-linecap="round" stroke-linejoin="round" stroke-width="8"/>
      </g>
      <g id="Line_23">
        <path d="M 992.3781 874.5098 C 1019.9632 882.9931 1058.8267 891.0574 1099.3867 887 C 1129.8278 883.9548 1155.5342 874.651 1175.4597 864.5457" stroke="#19854d" stroke-linecap="round" stroke-linejoin="round" stroke-width="6"/>
      </g>
      <g id="Line_24">
        <path d="M 1121.2727 585.0719 C 1111.4446 582.87414 1099.5822 580.6799 1086 579 C 1063.3435 576.1978 1041.6694 575.54016 1026.555 575.52634" stroke="#19854d" stroke-linecap="round" stroke-linejoin="round" stroke-width="3"/>
      </g>
      <g id="Graphic_25">
        <path d="M 816 487.12844 L 1296 487.12844 C 1301.5228 487.12844 1306 491.6056 1306 497.12844 L 1306 977.1284 C 1306 982.6513 1301.5228 987.1284 1296 987.1284 L 816 987.1284 C 810.4772 987.1284 806 982.6513 806 977.1284 L 806 497.12844 C 806 491.6056 810.4772 487.12844 816 487.12844 Z" stroke="#19854d" stroke-linecap="round" stroke-linejoin="round" stroke-width="4"/>
      </g>
      <g id="Graphic_71">
        <line x1="938.9479" y1="871.3355" x2="956.7257" y2="871.3355" stroke="#19854d" stroke-linecap="butt" stroke-linejoin="round" stroke-width="4"/>
      </g>
      <g id="Graphic_70">
        <line x1="932.2812" y1="880.2244" x2="972.2812" y2="880.2244" stroke="#19854d" stroke-linecap="butt" stroke-linejoin="round" stroke-width="4"/>
      </g>
      <g id="Graphic_69">
        <path d="M 956.7257 880.2244 C 965.3168 880.2244 972.2813 873.2599 972.2813 864.6688 C 972.2813 856.0777 965.3168 849.1133 956.7257 849.1133 L 954.5035 849.1133" stroke="#19854d" stroke-linecap="butt" stroke-linejoin="round" stroke-width="4"/>
      </g>
      <g id="Graphic_68">
        <line x1="945.6146" y1="862.4466" x2="950.059" y2="862.4466" stroke="#19854d" stroke-linecap="butt" stroke-linejoin="round" stroke-width="4"/>
      </g>
      <g id="Graphic_67">
        <path d="M 945.6146 858.0022 C 943.16 858.0022 941.1701 856.0123 941.1701 853.5577 L 941.1701 844.6688 L 954.5035 844.6688 L 954.5035 853.5577 C 954.5035 856.0123 952.5136 858.0022 950.059 858.0022 Z" stroke="#19854d" stroke-linecap="butt" stroke-linejoin="round" stroke-width="4"/>
      </g>
      <g id="Graphic_66">
        <path d="M 952.2812 844.6688 L 952.2812 838.0022 C 952.2812 836.7749 951.2863 835.7799 950.059 835.7799 L 945.6146 835.7799 C 944.3873 835.7799 943.3924 836.7749 943.3924 838.0022 L 943.3924 844.6688" stroke="#19854d" stroke-linecap="butt" stroke-linejoin="round" stroke-width="4"/>
      </g>
      <g id="Group_75">
        <g id="Graphic_74">
          <ellipse cx="1153.3685" cy="580.2344" rx="18.0000287622341" ry="6.00000958741139" stroke="#19854d" stroke-linecap="butt" stroke-linejoin="round" stroke-width="3"/>
        </g>
        <g id="Graphic_73">
          <path d="M 1135.3685 580.2344 L 1135.3685 608.2344 C 1135.3685 611.5481 1143.4273 614.2344 1153.3685 614.2344 C 1163.3096 614.2344 1171.3685 611.5481 1171.3685 608.2344 L 1171.3685 580.2344" stroke="#19854d" stroke-linecap="butt" stroke-linejoin="round" stroke-width="3"/>
        </g>
        <g id="Graphic_72">
          <path d="M 1135.3685 594.2344 C 1135.3685 597.5481 1143.4273 600.2344 1153.3685 600.2344 C 1163.3096 600.2344 1171.3685 597.5481 1171.3685 594.2344" stroke="#19854d" stroke-linecap="butt" stroke-linejoin="round" stroke-width="3"/>
        </g>
      </g>
      <g id="Group_81">
        <g id="Graphic_80">
          <path d="M 910 679.6367 L 892 679.6367 C 889.7909 679.6367 888 681.4276 888 683.6367 L 888 715.6367 C 888 717.8459 889.7909 719.6367 892 719.6367 L 916 719.6367 C 918.2091 719.6367 920 717.8459 920 715.6367 L 920 689.6367 Z" stroke="#19854d" stroke-linecap="butt" stroke-linejoin="round" stroke-width="3"/>
        </g>
        <g id="Graphic_79">
          <path d="M 908 679.6367 L 908 687.6367 C 908 689.84586 909.7909 691.6367 912 691.6367 L 920 691.6367" stroke="#19854d" stroke-linecap="butt" stroke-linejoin="round" stroke-width="3"/>
        </g>
        <g id="Graphic_78">
          <line x1="900" y1="693.6367" x2="896" y2="693.6367" stroke="#19854d" stroke-linecap="butt" stroke-linejoin="round" stroke-width="3"/>
        </g>
        <g id="Graphic_77">
          <line x1="912" y1="701.6367" x2="896" y2="701.6367" stroke="#19854d" stroke-linecap="butt" stroke-linejoin="round" stroke-width="3"/>
        </g>
        <g id="Graphic_76">
          <line x1="912" y1="709.6367" x2="896" y2="709.6367" stroke="#19854d" stroke-linecap="butt" stroke-linejoin="round" stroke-width="3"/>
        </g>
      </g>
      <g id="Group_86">
        <g id="Graphic_85">
          <path d="M 1243.5781 865.3249 L 1243.5781 826.8249 C 1243.5781 824.8919 1242.0111 823.3249 1240.0781 823.3249 L 1205.0781 823.3249 C 1203.1451 823.3249 1201.5781 824.8919 1201.5781 826.8249 L 1201.5781 865.3249" stroke="#19854d" stroke-linecap="butt" stroke-linejoin="round" stroke-width="5"/>
        </g>
        <g id="Graphic_84">
          <path d="M 1257.5781 858.3249 C 1257.5781 862.1909 1254.4441 865.3249 1250.5781 865.3249 L 1194.5781 865.3249 C 1190.7121 865.3249 1187.5781 862.1909 1187.5781 858.3249 L 1187.5781 819.8249 C 1187.5765 817.13485 1189.1166 814.6819 1191.5401 813.5144 L 1219.3651 799.6054 C 1221.3815 798.5629 1223.7782 798.5629 1225.7946 799.6054 L 1253.6126 813.5144 C 1256.0375 814.6809 1257.579 817.1341 1257.5781 819.8249 Z" stroke="#19854d" stroke-linecap="butt" stroke-linejoin="round" stroke-width="5"/>
        </g>
        <g id="Graphic_83">
          <line x1="1201.5781" y1="837.3249" x2="1243.5781" y2="837.3249" stroke="#19854d" stroke-linecap="butt" stroke-linejoin="round" stroke-width="5"/>
        </g>
        <g id="Graphic_82">
          <line x1="1201.5781" y1="851.3249" x2="1243.5781" y2="851.3249" stroke="#19854d" stroke-linecap="butt" stroke-linejoin="round" stroke-width="5"/>
        </g>
      </g>
      <g id="Group_90">
        <g id="Graphic_89">
          <path d="M 1014.5451 577.8537 L 1012.2118 575.5204 C 1011.3477 574.6734 1009.9648 574.6734 1009.1007 575.5204 L 1003.1007 581.5204" stroke="#19854d" stroke-linecap="butt" stroke-linejoin="round" stroke-width="2"/>
        </g>
        <g id="Graphic_88">
          <path d="M 996.7674 584.2982 L 996.7674 567.6315 C 996.7674 566.0974 998.011 564.8537 999.5451 564.8537 L 1013.434 564.8537 C 1014.0477 564.8537 1014.5451 565.3512 1014.5451 565.96484 L 1014.5451 585.96484 C 1014.5451 586.5785 1014.0477 587.07595 1013.434 587.07595 L 999.5451 587.07595 C 998.011 587.07595 996.7674 585.8323 996.7674 584.2982 C 996.7674 582.76405 998.011 581.5204 999.5451 581.5204 L 1014.5451 581.5204" stroke="#19854d" stroke-linecap="butt" stroke-linejoin="round" stroke-width="2"/>
        </g>
        <g id="Graphic_87">
          <circle cx="1003.434" cy="571.5204" r="2.2222257731153" stroke="#19854d" stroke-linecap="butt" stroke-linejoin="round" stroke-width="2"/>
        </g>
      </g>
      <g id="Graphic_93">
        <circle cx="1055.246" cy="730.0567" r="31.8736806490396" stroke="#19854d" stroke-linecap="round" stroke-linejoin="round" stroke-width="4"/>
      </g>
      <g id="Graphic_94">
        <circle cx="1055.246" cy="787.6984" r="10.4248353687444" fill="white"/>
        <circle cx="1055.246" cy="787.6984" r="10.4248353687444" stroke="#19854d" stroke-linecap="round" stroke-linejoin="round" stroke-width="3"/>
      </g>
      <g id="Graphic_95">
        <circle cx="1099.3591" cy="763.8187" r="10.4248353687443" fill="white"/>
        <circle cx="1099.3591" cy="763.8187" r="10.4248353687443" stroke="#19854d" stroke-linecap="round" stroke-linejoin="round" stroke-width="3"/>
      </g>
      <g id="Graphic_97">
        <circle cx="1002.6525" cy="688.0443" r="10.4248353687444" fill="white"/>
        <circle cx="1002.6525" cy="688.0443" r="10.4248353687444" stroke="#19854d" stroke-linecap="round" stroke-linejoin="round" stroke-width="3"/>
      </g>
      <g id="Line_99">
        <line x1="1032.2831" y1="754.9598" x2="1031.1745" y2="756.1622" marker-end="url(#FilledArrow_Marker)" stroke="#19854d" stroke-linecap="round" stroke-linejoin="round" stroke-width="1"/>
      </g>
      <g id="Line_100">
        <line x1="1028.7775" y1="708.9133" x2="1019.7055" y2="701.6665" marker-end="url(#FilledArrow_Marker)" stroke="#19854d" stroke-linecap="round" stroke-linejoin="round" stroke-width="1"/>
      </g>
      <g id="Line_101">
        <line x1="1014.5773" y1="688.0443" x2="1070.9519" y2="688.0443" marker-end="url(#FilledArrow_Marker)" stroke="#19854d" stroke-linecap="round" stroke-linejoin="round" stroke-width="1"/>
      </g>
      <g id="Line_102"/>
      <g id="Line_103">
        <line x1="1055.246" y1="775.7736" x2="1055.246" y2="773.8304" marker-end="url(#FilledArrow_Marker)" stroke="#19854d" stroke-linecap="round" stroke-linejoin="round" stroke-width="1"/>
      </g>
      <g id="Group_104">
        <g id="Graphic_92">
          <path d="M 1004.0358 781.9515 C 1005.6088 784.0544 1008.0176 785.3705 1010.637 785.5581 C 1013.2565 785.7457 1015.8282 784.7863 1017.6849 782.929 L 1023.1155 777.4984 C 1026.5456 773.9469 1026.4966 768.3017 1023.0052 764.8104 C 1019.5139 761.3191 1013.8687 761.27 1010.3173 764.70015 L 1007.2037 767.7956" stroke="#19854d" stroke-linecap="butt" stroke-linejoin="round" stroke-width="4"/>
        </g>
        <g id="Graphic_91">
          <path d="M 1011.2767 778.3311 C 1009.7037 776.2282 1007.2949 774.9121 1004.6755 774.7245 C 1002.056 774.5369 999.4843 775.4963 997.6276 777.3536 L 992.197 782.7842 C 988.7669 786.3357 988.816 791.9809 992.3073 795.4722 C 995.7986 798.9635 1001.4438 799.0126 1004.9952 795.58245 L 1008.0907 792.487" stroke="#19854d" stroke-linecap="butt" stroke-linejoin="round" stroke-width="4"/>
        </g>
      </g>
      <g id="Group_151">
        <title>Group</title>
        <g id="Graphic_164" filter="url(#Shadow)">
          <rect x="893.2646" y="937.2871" width="4.166172" height="27.65104" fill="#19854d"/>
        </g>
        <g id="Graphic_163" filter="url(#Shadow)">
          <path d="M 1020.7803 961.0188 L 1009.7014 961.0188 L 1009.7014 951.7915 L 1020.4717 951.7915 L 1020.4717 947.8414 L 1009.7014 947.8414 L 1009.7014 941.2064 L 1020.7803 941.2064 L 1020.7803 937.2871 L 1005.5352 937.2871 L 1005.5352 964.9381 L 1020.7803 964.9381 Z" fill="#19854d"/>
        </g>
        <g id="Graphic_162" filter="url(#Shadow)">
          <path d="M 1053.2148 953.1494 C 1055.0664 952.7482 1056.5477 951.8533 1057.6587 950.4337 C 1058.7696 949.0141 1059.356 947.3476 1059.356 945.3726 C 1059.356 942.8729 1058.461 940.8361 1056.6711 939.3239 C 1055.0355 937.966 1052.4124 937.2562 1048.7708 937.2562 L 1043.864 937.2562 L 1043.864 964.9073 L 1048.0302 964.9073 L 1048.0302 953.5815 L 1048.7708 953.5815 L 1056.6711 964.9073 L 1061.7631 964.9073 Z M 1048.0302 950.0016 L 1048.0302 941.2372 L 1049.5115 941.2372 C 1053.369 941.2372 1055.2824 942.6568 1055.2824 945.496 C 1055.2824 948.5203 1053.3073 950.0325 1049.3572 950.0325 L 1048.0302 950.0325 Z" fill="#19854d"/>
        </g>
        <g id="Graphic_161" filter="url(#Shadow)">
          <path d="M 1137.7726 961.0188 L 1126.6937 961.0188 L 1126.6937 951.7915 L 1137.4331 951.7915 L 1137.4331 947.8414 L 1126.6937 947.8414 L 1126.6937 941.2064 L 1137.7726 941.2064 L 1137.7726 937.2871 L 1122.5275 937.2871 L 1122.5275 964.9381 L 1137.7726 964.9381 Z" fill="#19854d"/>
        </g>
        <g id="Graphic_160" filter="url(#Shadow)">
          <path d="M 1173.756 965.4319 C 1176.3791 965.4319 1178.8788 964.753 1181.286 963.3951 L 1181.286 958.3648 C 1180.607 958.9512 1179.959 959.4141 1179.3418 959.8461 C 1178.7245 960.2473 1178.1382 960.5868 1177.5518 960.8028 C 1176.5334 961.2657 1175.2682 961.5126 1173.8177 961.5126 C 1170.9785 961.5126 1168.5714 960.5251 1166.6272 958.5191 C 1164.683 956.5132 1163.6955 954.0752 1163.6955 951.1743 C 1163.6955 948.2426 1164.683 945.7429 1166.6272 943.737 C 1168.5714 941.7002 1170.9785 940.6818 1173.8177 940.6818 C 1176.41 940.6818 1178.8788 941.7002 1181.3168 943.7061 L 1181.3168 938.7684 C 1179.0023 937.4105 1176.5952 936.7625 1174.1263 936.7625 C 1169.5898 936.7625 1165.8866 938.4598 1163.0165 941.8236 C 1160.702 944.5702 1159.5293 947.718 1159.5293 951.2361 C 1159.5293 955.1553 1160.918 958.5191 1163.6955 961.2966 C 1166.442 964.074 1169.8058 965.4319 1173.756 965.4319 Z" fill="#19854d"/>
        </g>
        <g id="Graphic_159" filter="url(#Shadow)">
          <path d="M 921.6872 964.9381 L 925.8533 964.9381 L 925.8533 947.6562 L 921.6872 941.4533 Z" fill="#19854d"/>
        </g>
        <g id="Graphic_158" filter="url(#Shadow)">
          <path d="M 946.0053 960.6177 L 946.0053 937.2871 L 941.8391 937.2871 L 941.8391 956.2972 L 921.6872 935.4046 L 921.6872 941.4533 L 946.0053 966.6046 Z" fill="#19854d"/>
        </g>
        <g id="Graphic_157" filter="url(#Shadow)">
          <path d="M 973.6872 964.9381 L 977.8533 964.9381 L 977.8533 941.2064 L 973.6872 943.5518 Z" fill="#19854d"/>
        </g>
        <g id="Graphic_156" filter="url(#Shadow)">
          <path d="M 984.2106 937.2871 L 967.3299 937.2871 L 967.3299 941.2064 L 977.8533 941.2064 L 984.2106 941.2064 Z" fill="#19854d"/>
        </g>
        <g id="Graphic_155" filter="url(#Shadow)">
          <path d="M 1207.5791 964.9381 L 1211.7762 964.9381 L 1211.7762 941.299 L 1207.5791 943.6444 Z" fill="#19854d"/>
        </g>
        <g id="Graphic_154" filter="url(#Shadow)">
          <path d="M 1201.2527 937.2871 L 1201.2527 941.2064 L 1211.7762 941.2064 L 1211.9305 941.2064 L 1218.1026 941.2064 L 1218.1026 937.2871 Z" fill="#19854d"/>
        </g>
        <g id="Graphic_153" filter="url(#Shadow)">
          <path d="M 1211.7762 941.299 L 1211.9305 941.2064 L 1211.7762 941.2064 Z" fill="#19854d"/>
        </g>
        <g id="Graphic_152" filter="url(#Shadow)">
          <path d="M 1098.3329 951.8224 C 1097.2836 950.5263 1095.648 949.4153 1093.3952 948.4895 L 1090.6486 947.3476 C 1088.6426 946.5144 1087.6551 945.4343 1087.6551 944.0764 C 1087.6551 943.0889 1088.0254 942.2865 1088.797 941.6384 C 1089.5685 940.9904 1090.5251 940.6509 1091.667 940.6509 C 1092.6237 940.6509 1093.3643 940.8361 1093.9815 941.2372 C 1094.5679 941.5767 1095.1542 942.2865 1095.8023 943.3975 L 1099.197 941.3915 C 1097.407 938.3055 1094.9073 936.7625 1091.7287 936.7625 C 1089.3524 936.7625 1087.3774 937.4723 1085.8035 938.861 C 1084.2296 940.2497 1083.4272 941.9779 1083.4272 944.0764 C 1083.4272 947.1625 1085.3097 949.477 1089.1056 951.0818 L 1091.7596 952.1927 C 1092.4385 952.5013 1093.0557 952.81 1093.5495 953.1186 C 1094.0432 953.4272 1094.4444 953.7975 1094.7839 954.1678 C 1095.0925 954.5381 1095.3394 954.9702 1095.4937 955.4022 C 1095.648 955.8651 1095.7097 956.328 1095.7097 956.8835 C 1095.7097 958.2105 1095.2777 959.3215 1094.4136 960.1856 C 1093.5495 961.0497 1092.4694 961.4818 1091.1732 961.4818 C 1089.5376 961.4818 1088.2723 960.8954 1087.4082 959.6918 C 1086.9453 959.0746 1086.6058 957.9637 1086.4207 956.328 L 1086.359 954.8776 L 1082.1928 957.2539 C 1082.5631 959.8461 1083.5507 961.8212 1085.0628 963.2717 C 1086.6367 964.6913 1088.6118 965.401 1091.0189 965.401 C 1093.5495 965.401 1095.6788 964.5678 1097.3762 962.9013 C 1099.0735 961.2349 1099.9067 959.1364 1099.9067 956.6058 C 1099.8759 954.7233 1099.3512 953.1186 1098.3329 951.8224 Z" fill="#19854d"/>
        </g>
      </g>
      <g id="Group_107">
        <g id="Graphic_119">
          <path d="M 1094.605 682.5907 L 1094.6521 682.6142 C 1094.605 682.8966 1094.605 683.1791 1094.6521 683.4615 C 1094.6991 683.6733 1094.7933 683.8851 1094.911 684.0734 C 1095.5464 685.1325 1096.9115 685.462 1097.9706 684.8265 C 1099.0296 684.1911 1099.3591 682.826 1098.7237 681.76694 C 1098.1353 680.77846 1096.8879 680.4254 1095.8759 680.9197 C 1095.8524 680.9197 1095.8524 680.9432 1095.8288 680.9432 C 1095.5935 681.0844 1095.3817 681.2727 1095.2169 681.461 L 1095.1698 681.43745 C 1095.1463 681.461 1095.1228 681.461 1095.1228 681.4845 L 1093.9931 680.9432 C 1093.9931 680.9197 1093.9931 680.8961 1093.9931 680.8726 L 1093.946 680.8491 C 1093.9931 680.56664 1093.9931 680.2842 1093.946 680.0253 C 1093.899 679.8135 1093.8048 679.6017 1093.6871 679.4134 C 1093.0517 678.3543 1091.6866 678.0248 1090.6275 678.6603 C 1089.5684 679.2957 1089.239 680.6608 1089.8744 681.7199 C 1090.4628 682.70836 1091.7102 683.0614 1092.7222 682.56714 C 1092.7457 682.56714 1092.7457 682.5436 1092.7692 682.5436 C 1093.0046 682.4024 1093.2164 682.2141 1093.3812 682.0023 L 1093.4282 682.0258 C 1093.4518 682.0023 1093.4753 682.0023 1093.4753 681.9788 L 1094.605 682.5201 C 1094.605 682.5436 1094.605 682.56714 1094.605 682.5907 Z" fill="#19854d"/>
        </g>
        <g id="Graphic_118">
          <path d="M 1092.7692 682.56714 C 1092.7457 682.56714 1092.7457 682.5907 1092.7222 682.5907 C 1092.7928 682.56714 1092.8634 682.5201 1092.934 682.473 C 1093.1223 682.3553 1093.287 682.2141 1093.4282 682.0494 L 1093.3812 682.0258 C 1093.2164 682.23765 1093.0046 682.4024 1092.7692 682.56714 Z" fill="#19854d"/>
        </g>
        <g id="Graphic_117">
          <path d="M 1093.9225 680.8491 L 1093.9695 680.8726 C 1094.0166 680.5902 1093.9931 680.30775 1093.9225 680.0253 C 1093.9695 680.30775 1093.9695 680.5902 1093.9225 680.8491 Z" fill="#19854d"/>
        </g>
        <g id="Graphic_116">
          <path d="M 1095.8053 680.9432 C 1095.8288 680.9432 1095.8288 680.9197 1095.8524 680.9197 C 1095.7818 680.9432 1095.7112 680.9903 1095.6406 681.03735 C 1095.4523 681.155 1095.2875 681.2962 1095.1463 681.461 L 1095.1934 681.4845 C 1095.3581 681.2492 1095.57 681.0844 1095.8053 680.9432 Z" fill="#19854d"/>
        </g>
        <g id="Graphic_115">
          <path d="M 1094.6521 682.6142 L 1094.605 682.5907 C 1094.5579 682.8731 1094.5815 683.1791 1094.6521 683.4615 C 1094.5815 683.1791 1094.605 682.8966 1094.6521 682.6142 Z" fill="#19854d"/>
        </g>
        <g id="Graphic_114">
          <path d="M 1113.0802 685.03835 C 1113.2214 685.2031 1113.3627 685.3914 1113.4803 685.5797 C 1113.3627 685.3914 1113.2214 685.2031 1113.0802 685.03835 Z" fill="#19854d"/>
        </g>
        <g id="Graphic_113">
          <path d="M 1127.4133 670.9407 L 1113.2685 678.8721 L 1114.0687 675.7419 C 1111.0562 672.2351 1106.9375 669.9522 1102.301 669.3403 C 1097.3116 668.6578 1092.3456 669.9522 1088.321 673.0118 C 1084.2965 676.0714 1081.7076 680.496 1081.0251 685.4855 C 1080.5544 688.9923 1081.0486 692.49906 1082.4372 695.6528 L 1071.305 701.7955 L 1071.305 704.6668 L 1085.8499 696.6413 C 1083.8493 693.4169 1083.0256 689.62775 1083.5434 685.815 C 1083.8964 683.3203 1084.7908 680.96674 1086.1558 678.9427 C 1085.8263 679.8841 1085.6616 680.8961 1085.6851 681.9317 C 1085.7792 685.76795 1088.3681 688.9452 1091.8749 689.9572 L 1091.5925 692.1931 C 1088.98 692.49906 1087.0031 694.75845 1087.0502 697.4415 C 1087.0502 697.818 1087.0972 698.1711 1087.1914 698.5006 C 1087.0266 698.3123 1086.8619 698.1005 1086.7207 697.88865 C 1086.4147 697.48855 1086.1323 697.0649 1085.8499 696.6413 L 1085.0261 699.8656 C 1088.0622 703.6313 1092.3456 706.07894 1097.1468 706.7379 C 1098.0176 706.8556 1098.8884 706.9262 1099.7592 706.9262 C 1103.8544 706.9262 1107.8083 705.6082 1111.1268 703.08996 C 1118.3992 697.55915 1120.541 687.7449 1116.7047 679.8135 L 1127.4133 673.8591 Z M 1099.7122 671.71736 C 1100.4653 671.71736 1101.2184 671.7644 1101.9716 671.8821 C 1106.2785 672.4705 1110.1148 674.70634 1112.7507 678.1896 C 1114.1393 680.0018 1115.0572 682.0258 1115.575 684.1205 C 1114.3982 682.3553 1112.3977 681.2256 1110.1148 681.2727 C 1108.4202 681.3198 1106.8198 682.0023 1105.6431 683.2497 C 1105.3371 683.5792 1105.0547 683.9322 1104.8429 684.2852 L 1102.6305 683.4615 C 1102.7482 682.8496 1102.8188 682.1906 1102.7953 681.5316 C 1102.7482 679.2487 1101.8068 677.1305 1100.1593 675.5536 C 1098.5119 673.97675 1096.3466 673.1295 1094.0637 673.2001 C 1093.5694 673.2001 1093.0987 673.2707 1092.628 673.3648 C 1094.8168 672.2587 1097.241 671.71736 1099.7122 671.71736 Z M 1113.598 689.5101 C 1113.5745 689.5336 1113.5745 689.5336 1113.598 689.5101 C 1113.5274 689.62775 1113.4568 689.7219 1113.3862 689.816 C 1113.3627 689.8396 1113.3391 689.8866 1113.3156 689.9102 C 1113.292 689.9572 1113.2685 689.9808 1113.2214 690.02785 C 1113.1508 690.09845 1113.0802 690.1926 1113.0096 690.2632 C 1112.3036 690.9928 1111.3622 691.4164 1110.3266 691.44 C 1109.291 691.4635 1108.3261 691.0869 1107.5965 690.3809 C 1107.5259 690.3103 1107.4553 690.2397 1107.3847 690.16906 C 1107.3376 690.09845 1107.267 690.02785 1107.22 689.9572 L 1110.8679 688.1215 L 1110.8679 688.9923 C 1110.8679 689.2747 1111.1033 689.5101 1111.3857 689.5101 Z M 1106.961 685.7444 C 1106.961 685.7209 1106.961 685.7209 1106.961 685.7444 C 1107.0317 685.6032 1107.1258 685.4855 1107.1964 685.3914 L 1107.22 685.36785 C 1107.3141 685.2502 1107.4082 685.1325 1107.5024 685.0148 C 1108.2084 684.2852 1109.1498 683.8616 1110.1854 683.83805 C 1110.2089 683.83805 1110.256 683.83805 1110.2795 683.83805 C 1110.3972 683.83805 1110.5149 683.83805 1110.609 683.8616 C 1110.6326 683.8616 1110.6796 683.8616 1110.7032 683.8616 C 1110.7973 683.8616 1110.8914 683.8851 1110.962 683.90866 C 1110.9856 683.90866 1111.0091 683.90866 1111.0327 683.9322 C 1111.1268 683.9557 1111.2445 683.9793 1111.3386 684.0028 C 1111.3622 684.0028 1111.4092 684.0263 1111.4328 684.0263 C 1111.5034 684.0499 1111.574 684.0734 1111.6446 684.09694 C 1111.6917 684.1205 1111.7152 684.1205 1111.7623 684.144 C 1111.8564 684.1911 1111.9505 684.2146 1112.0211 684.2617 C 1112.0682 684.2852 1112.0918 684.3088 1112.1388 684.3323 C 1112.1859 684.3558 1112.233 684.4029 1112.3036 684.4264 C 1112.3506 684.45 1112.3977 684.4735 1112.4448 684.5206 C 1112.4919 684.5441 1112.5154 684.56765 1112.5625 684.6147 C 1112.6566 684.6853 1112.7272 684.7324 1112.7978 684.803 C 1112.8213 684.8265 1112.8449 684.8501 1112.8684 684.8736 C 1112.9155 684.9207 1112.9626 684.96775 1113.0096 685.0148 C 1113.0332 685.03835 1113.0567 685.0619 1113.0802 685.0854 C 1113.2214 685.2502 1113.3627 685.43846 1113.4803 685.6267 C 1113.4803 685.6503 1113.5039 685.6503 1113.5039 685.6738 C 1113.551 685.7444 1113.5745 685.815 1113.6215 685.8621 L 1111.3857 685.8621 C 1111.1033 685.8621 1110.8679 686.09744 1110.8679 686.3799 L 1110.8679 687.1801 Z M 1109.6441 687.69785 L 1106.7728 689.157 C 1106.7492 689.11 1106.7257 689.0394 1106.7022 688.9923 C 1106.7022 688.96876 1106.6786 688.9452 1106.6786 688.9217 C 1106.6551 688.8511 1106.6316 688.804 1106.608 688.7334 C 1106.608 688.7099 1106.5845 688.6863 1106.5845 688.6393 C 1106.561 688.56865 1106.561 688.5216 1106.5374 688.451 C 1106.5374 688.42744 1106.5139 688.3804 1106.5139 688.3568 C 1106.4903 688.2627 1106.4903 688.16855 1106.4668 688.0744 C 1106.4433 687.9567 1106.4433 687.8155 1106.4433 687.69785 C 1106.4433 687.5802 1106.4433 687.4625 1106.4433 687.3448 C 1106.4433 687.3213 1106.4433 687.2742 1106.4433 687.2507 C 1106.4433 687.1565 1106.4668 687.0859 1106.4668 686.9918 C 1106.4668 686.96825 1106.4668 686.9212 1106.4903 686.89765 C 1106.5139 686.78 1106.5374 686.6858 1106.561 686.56815 Z M 1095.617 697.7239 C 1095.4523 697.7239 1095.2875 697.5827 1095.2875 697.3944 C 1095.2875 697.2061 1095.4287 697.0649 1095.617 697.0649 C 1095.7818 697.0649 1095.9465 697.2061 1095.9465 697.3944 C 1095.9465 697.5827 1095.8053 697.7239 1095.617 697.7239 Z M 1095.9465 698.35935 C 1095.9465 698.5241 1095.8053 698.68885 1095.617 698.68885 C 1095.4523 698.68885 1095.2875 698.5476 1095.2875 698.35935 C 1095.2875 698.1946 1095.4287 698.0299 1095.617 698.0299 C 1095.8053 698.0299 1095.9465 698.1711 1095.9465 698.35935 Z M 1095.617 696.75895 C 1095.4523 696.75895 1095.2875 696.6177 1095.2875 696.42946 C 1095.2875 696.2647 1095.4287 696.1 1095.617 696.1 C 1095.7818 696.1 1095.9465 696.2412 1095.9465 696.42946 C 1095.9465 696.6177 1095.8053 696.75895 1095.617 696.75895 Z M 1094.1578 692.5226 C 1094.1578 692.5226 1093.4282 692.1696 1092.0632 692.1931 L 1094.2755 691.62825 L 1094.4403 690.2632 C 1097.5704 690.1926 1100.277 688.42744 1101.7127 685.8856 C 1101.7127 685.8856 1102.2069 685.2031 1102.5364 683.8851 L 1102.5129 686.1445 L 1103.972 686.6858 C 1103.925 687.03886 1103.9015 687.4154 1103.9015 687.792 C 1103.925 688.3804 1103.9956 688.9452 1104.1603 689.4865 C 1104.1603 689.4865 1104.4428 690.3338 1105.2194 691.2517 L 1103.4307 689.8866 L 1096.0642 693.8406 C 1095.5229 693.2522 1094.8874 692.805 1094.1578 692.5226 Z M 1093.3812 693.8876 C 1093.3812 694.0524 1093.24 694.2171 1093.0517 694.2171 C 1092.8869 694.2171 1092.7222 694.0759 1092.7222 693.8876 C 1092.7222 693.7229 1092.8634 693.55815 1093.0517 693.55815 C 1093.24 693.55815 1093.3812 693.69936 1093.3812 693.8876 Z M 1088.274 681.8611 C 1088.2269 680.2607 1088.8153 678.7544 1089.9215 677.57765 C 1091.0276 676.4244 1092.5104 675.7654 1094.1108 675.7184 C 1094.1578 675.7184 1094.2049 675.7184 1094.252 675.7184 C 1097.4998 675.7184 1100.1593 678.30725 1100.23 681.5787 C 1100.3005 684.8736 1097.6881 687.62724 1094.3696 687.69785 C 1091.0982 687.792 1088.3446 685.156 1088.274 681.8611 Z M 1092.1103 693.55815 C 1092.275 693.55815 1092.4397 693.69936 1092.4397 693.8876 C 1092.4397 694.0524 1092.2985 694.2171 1092.1103 694.2171 C 1091.922 694.2171 1091.7808 694.0759 1091.7808 693.8876 C 1091.7808 693.69936 1091.9455 693.55815 1092.1103 693.55815 Z M 1091.1453 693.55815 C 1091.31 693.55815 1091.4748 693.69936 1091.4748 693.8876 C 1091.4748 694.0524 1091.3336 694.2171 1091.1453 694.2171 C 1090.9806 694.2171 1090.8158 694.0759 1090.8158 693.8876 C 1090.8393 693.69936 1090.9806 693.55815 1091.1453 693.55815 Z M 1088.6035 698.6653 C 1088.4387 698.6653 1088.274 698.5241 1088.274 698.3358 C 1088.274 698.1711 1088.4152 698.0063 1088.6035 698.0063 C 1088.7682 698.0063 1088.933 698.1475 1088.933 698.3358 C 1088.9094 698.5241 1088.7682 698.6653 1088.6035 698.6653 Z M 1088.6035 697.7239 C 1088.4387 697.7239 1088.274 697.5827 1088.274 697.3944 C 1088.274 697.2061 1088.4152 697.0649 1088.6035 697.0649 C 1088.7682 697.0649 1088.933 697.2061 1088.933 697.3944 C 1088.933 697.5827 1088.7682 697.7239 1088.6035 697.7239 Z M 1088.6035 696.75895 C 1088.4387 696.75895 1088.274 696.6177 1088.274 696.42946 C 1088.274 696.2647 1088.4152 696.1 1088.6035 696.1 C 1088.7682 696.1 1088.933 696.2412 1088.933 696.42946 C 1088.9094 696.6177 1088.7682 696.75895 1088.6035 696.75895 Z M 1089.5684 699.6303 L 1089.5684 695.15855 C 1089.5684 694.9938 1089.7096 694.82905 1089.8979 694.82905 L 1094.3696 694.82905 C 1094.5344 694.82905 1094.6991 694.9703 1094.6991 695.15855 L 1094.6991 699.6303 C 1094.6991 699.795 1094.5579 699.95976 1094.3696 699.95976 L 1089.8979 699.95976 C 1089.7096 699.95976 1089.5684 699.81854 1089.5684 699.6303 Z M 1093.3812 700.9012 C 1093.3812 701.0659 1093.24 701.2307 1093.0517 701.2307 C 1092.8869 701.2307 1092.7222 701.08945 1092.7222 700.9012 C 1092.7222 700.7129 1092.8634 700.5717 1093.0517 700.5717 C 1093.24 700.5952 1093.3812 700.7364 1093.3812 700.9012 Z M 1091.1453 701.2307 C 1090.9806 701.2307 1090.8158 701.08945 1090.8158 700.9012 C 1090.8158 700.7129 1090.957 700.5717 1091.1453 700.5717 C 1091.31 700.5717 1091.4748 700.7129 1091.4748 700.9012 C 1091.4748 701.08945 1091.3336 701.2307 1091.1453 701.2307 Z M 1091.7808 700.9012 C 1091.7808 700.7364 1091.922 700.5717 1092.1103 700.5717 C 1092.2985 700.5717 1092.4397 700.7129 1092.4397 700.9012 C 1092.4397 701.08945 1092.2985 701.2307 1092.1103 701.2307 C 1091.922 701.2307 1091.7808 701.08945 1091.7808 700.9012 Z M 1109.597 701.0424 C 1106.1138 703.6783 1101.8303 704.808 1097.5234 704.21965 C 1095.617 703.9608 1093.7813 703.3724 1092.1338 702.5016 C 1092.2044 702.5016 1092.2985 702.5016 1092.3691 702.5016 C 1095.2169 702.431 1097.4763 700.0774 1097.4057 697.22966 C 1097.4057 696.8531 1097.3351 696.4765 1097.2645 696.1 L 1105.3606 691.7459 C 1105.5254 691.9342 1105.6666 692.09896 1105.8549 692.2637 C 1107.0552 693.4169 1108.6085 694.02885 1110.256 694.02885 C 1110.303 694.02885 1110.3501 694.02885 1110.3972 694.02885 C 1112.0918 693.9818 1113.6922 693.29926 1114.8689 692.0519 C 1115.2455 691.6753 1115.5514 691.2517 1115.8103 690.8045 C 1115.1278 694.7349 1113.0332 698.43 1109.597 701.0424 Z" fill="#19854d"/>
        </g>
        <g id="Graphic_112">
          <path d="M 1113.598 689.5101 C 1113.5745 689.5336 1113.5745 689.5336 1113.598 689.5101 C 1113.5745 689.5336 1113.5745 689.5336 1113.598 689.5101 Z" fill="#19854d"/>
        </g>
        <g id="Graphic_111">
          <path d="M 1106.7728 689.157 C 1106.7492 689.11 1106.7257 689.0394 1106.7022 688.9923 C 1106.7257 689.0394 1106.7492 689.11 1106.7728 689.157 Z" fill="#19854d"/>
        </g>
        <g id="Graphic_110">
          <path d="M 1113.6451 685.83856 C 1113.598 685.76795 1113.5745 685.69734 1113.5274 685.6503 C 1113.5745 685.69734 1113.598 685.76795 1113.6451 685.83856 Z" fill="#19854d"/>
        </g>
        <g id="Graphic_109">
          <path d="M 1106.961 685.7444 C 1106.961 685.7209 1106.961 685.7209 1106.961 685.7444 C 1106.961 685.7209 1106.961 685.7209 1106.961 685.7444 Z" fill="#19854d"/>
        </g>
        <g id="Graphic_108">
          <path d="M 1107.22 685.3443 C 1107.3141 685.2266 1107.4082 685.109 1107.5024 684.9913 C 1107.4082 685.109 1107.2905 685.2266 1107.22 685.3443 Z" fill="#19854d"/>
        </g>
      </g>
      <g id="Graphic_172">
        <text transform="translate(1029.1264 713.5567)" fill="#19854d">
          <tspan font-family="Roboto" font-weight="bold" font-size="28" fill="#19854d" x="1.5874977" y="26" xml:space="preserve">SDL</tspan>
        </text>
      </g>
    </g>
  </g>
</svg>
