<?xml version="1.0" encoding="UTF-8" standalone="no"?>
<!DOCTYPE svg PUBLIC "-//W3C//DTD SVG 1.1//EN" "http://www.w3.org/Graphics/SVG/1.1/DTD/svg11.dtd">
<svg xmlns:xl="http://www.w3.org/1999/xlink" xmlns:dc="http://purl.org/dc/elements/1.1/" version="1.1" xmlns="http://www.w3.org/2000/svg" viewBox="1059.5625 2562.8838 938.4375 497.1162" width="938.4375" height="497.1162">
  <defs/>
  <g id="Canvas_16" fill-opacity="1" stroke-dasharray="none" stroke="none" stroke-opacity="1" fill="none">
    <title>Canvas 16</title>
    <g id="Canvas_16_Layer_1">
      <title>Layer 1</title>
      <g id="Graphic_2">
        <path d="M 1065.0625 2966.5 L 1992.5 2966.5 C 1995.2614 2966.5 1997.5 2968.7386 1997.5 2971.5 L 1997.5 3054.5 C 1997.5 3057.2614 1995.2614 3059.5 1992.5 3059.5 L 1065.0625 3059.5 C 1062.3011 3059.5 1060.0625 3057.2614 1060.0625 3054.5 L 1060.0625 2971.5 C 1060.0625 2968.7386 1062.3011 2966.5 1065.0625 2966.5 Z" fill="#19854d" fill-opacity=".20239074"/>
        <path d="M 1065.0625 2966.5 L 1992.5 2966.5 C 1995.2614 2966.5 1997.5 2968.7386 1997.5 2971.5 L 1997.5 3054.5 C 1997.5 3057.2614 1995.2614 3059.5 1992.5 3059.5 L 1065.0625 3059.5 C 1062.3011 3059.5 1060.0625 3057.2614 1060.0625 3054.5 L 1060.0625 2971.5 C 1060.0625 2968.7386 1062.3011 2966.5 1065.0625 2966.5 Z" stroke="gray" stroke-linecap="round" stroke-linejoin="round" stroke-width="1"/>
        <text transform="translate(1065.0625 2971.5)" fill="black">
          <tspan font-family="Helvetica Neue" font-size="16" fill="black" x="0" y="15" xml:space="preserve">Storage Layer</tspan>
        </text>
      </g>
      <g id="Graphic_3">
        <path d="M 1065.0625 2702.5 L 1992.5 2702.5 C 1995.2614 2702.5 1997.5 2704.7386 1997.5 2707.5 L 1997.5 2934.5415 C 1997.5 2937.303 1995.2614 2939.5415 1992.5 2939.5415 L 1065.0625 2939.5415 C 1062.3011 2939.5415 1060.0625 2937.303 1060.0625 2934.5415 L 1060.0625 2707.5 C 1060.0625 2704.7386 1062.3011 2702.5 1065.0625 2702.5 Z" fill="#19854d" fill-opacity=".20239074"/>
        <path d="M 1065.0625 2702.5 L 1992.5 2702.5 C 1995.2614 2702.5 1997.5 2704.7386 1997.5 2707.5 L 1997.5 2934.5415 C 1997.5 2937.303 1995.2614 2939.5415 1992.5 2939.5415 L 1065.0625 2939.5415 C 1062.3011 2939.5415 1060.0625 2937.303 1060.0625 2934.5415 L 1060.0625 2707.5 C 1060.0625 2704.7386 1062.3011 2702.5 1065.0625 2702.5 Z" stroke="gray" stroke-linecap="round" stroke-linejoin="round" stroke-width="1"/>
        <text transform="translate(1065.0625 2707.5)" fill="black">
          <tspan font-family="Helvetica Neue" font-size="16" fill="black" x="0" y="15" xml:space="preserve">Backend Services</tspan>
        </text>
      </g>
      <g id="Group_20">
        <g id="Group_17">
          <g id="Graphic_4">
            <path d="M 1267.2305 2875.4084 L 1469.0039 2875.4084 C 1471.7653 2875.4084 1474.0039 2877.647 1474.0039 2880.4084 L 1474.0039 2913.008 C 1474.0039 2915.7695 1471.7653 2918.008 1469.0039 2918.008 L 1267.2305 2918.008 C 1264.469 2918.008 1262.2305 2915.7695 1262.2305 2913.008 L 1262.2305 2880.4084 C 1262.2305 2877.647 1264.469 2875.4084 1267.2305 2875.4084 Z" fill="#f90" fill-opacity=".5"/>
            <path d="M 1267.2305 2875.4084 L 1469.0039 2875.4084 C 1471.7653 2875.4084 1474.0039 2877.647 1474.0039 2880.4084 L 1474.0039 2913.008 C 1474.0039 2915.7695 1471.7653 2918.008 1469.0039 2918.008 L 1267.2305 2918.008 C 1264.469 2918.008 1262.2305 2915.7695 1262.2305 2913.008 L 1262.2305 2880.4084 C 1262.2305 2877.647 1264.469 2875.4084 1267.2305 2875.4084 Z" stroke="gray" stroke-linecap="round" stroke-linejoin="round" stroke-width="1"/>
            <text transform="translate(1267.2305 2887.4843)" fill="black">
              <tspan font-family="Helvetica Neue" font-size="16" fill="black" x="44.00672" y="15" xml:space="preserve">Storage Service</tspan>
            </text>
          </g>
          <g id="Graphic_5">
            <path d="M 1523.9492 2875.4084 L 1713.004 2875.4084 C 1715.7653 2875.4084 1718.004 2877.647 1718.004 2880.4084 L 1718.004 2913.008 C 1718.004 2915.7695 1715.7653 2918.008 1713.004 2918.008 L 1523.9492 2918.008 C 1521.1878 2918.008 1518.9492 2915.7695 1518.9492 2913.008 L 1518.9492 2880.4084 C 1518.9492 2877.647 1521.1878 2875.4084 1523.9492 2875.4084 Z" fill="#f90" fill-opacity=".5"/>
            <path d="M 1523.9492 2875.4084 L 1713.004 2875.4084 C 1715.7653 2875.4084 1718.004 2877.647 1718.004 2880.4084 L 1718.004 2913.008 C 1718.004 2915.7695 1715.7653 2918.008 1713.004 2918.008 L 1523.9492 2918.008 C 1521.1878 2918.008 1518.9492 2915.7695 1518.9492 2913.008 L 1518.9492 2880.4084 C 1518.9492 2877.647 1521.1878 2875.4084 1523.9492 2875.4084 Z" stroke="gray" stroke-linecap="round" stroke-linejoin="round" stroke-width="1"/>
            <text transform="translate(1523.9492 2887.4843)" fill="black">
              <tspan font-family="Helvetica Neue" font-size="16" fill="black" x="18.375344" y="15" xml:space="preserve">Data Adapter Service</tspan>
            </text>
          </g>
          <g id="Graphic_6">
            <path d="M 1767.9492 2875.4084 L 1969.7227 2875.4084 C 1972.484 2875.4084 1974.7227 2877.647 1974.7227 2880.4084 L 1974.7227 2913.008 C 1974.7227 2915.7695 1972.484 2918.008 1969.7227 2918.008 L 1767.9492 2918.008 C 1765.1878 2918.008 1762.9492 2915.7695 1762.9492 2913.008 L 1762.9492 2880.4084 C 1762.9492 2877.647 1765.1878 2875.4084 1767.9492 2875.4084 Z" fill="#f90" fill-opacity=".5"/>
            <path d="M 1767.9492 2875.4084 L 1969.7227 2875.4084 C 1972.484 2875.4084 1974.7227 2877.647 1974.7227 2880.4084 L 1974.7227 2913.008 C 1974.7227 2915.7695 1972.484 2918.008 1969.7227 2918.008 L 1767.9492 2918.008 C 1765.1878 2918.008 1762.9492 2915.7695 1762.9492 2913.008 L 1762.9492 2880.4084 C 1762.9492 2877.647 1765.1878 2875.4084 1767.9492 2875.4084 Z" stroke="gray" stroke-linecap="round" stroke-linejoin="round" stroke-width="1"/>
            <text transform="translate(1767.9492 2887.4843)" fill="black">
              <tspan font-family="Helvetica Neue" font-size="16" fill="black" x="19.398719" y="15" xml:space="preserve">Data Transport Service</tspan>
            </text>
          </g>
        </g>
        <g id="Group_19">
          <g id="Graphic_7">
            <path d="M 1381.7461 2799.721 L 1583.5195 2799.721 C 1586.281 2799.721 1588.5195 2801.9595 1588.5195 2804.721 L 1588.5195 2837.3206 C 1588.5195 2840.082 1586.281 2842.3206 1583.5195 2842.3206 L 1381.7461 2842.3206 C 1378.9847 2842.3206 1376.7461 2840.082 1376.7461 2837.3206 L 1376.7461 2804.721 C 1376.7461 2801.9595 1378.9847 2799.721 1381.7461 2799.721 Z" fill="#f90" fill-opacity=".5"/>
            <path d="M 1381.7461 2799.721 L 1583.5195 2799.721 C 1586.281 2799.721 1588.5195 2801.9595 1588.5195 2804.721 L 1588.5195 2837.3206 C 1588.5195 2840.082 1586.281 2842.3206 1583.5195 2842.3206 L 1381.7461 2842.3206 C 1378.9847 2842.3206 1376.7461 2840.082 1376.7461 2837.3206 L 1376.7461 2804.721 C 1376.7461 2801.9595 1378.9847 2799.721 1381.7461 2799.721 Z" stroke="gray" stroke-linecap="round" stroke-linejoin="round" stroke-width="1"/>
            <text transform="translate(1381.7461 2811.7968)" fill="black">
              <tspan font-family="Helvetica Neue" font-size="16" fill="black" x="42.82272" y="15" xml:space="preserve">Registry Service</tspan>
            </text>
          </g>
          <g id="Graphic_8">
            <path d="M 1644.707 2799.721 L 1846.4805 2799.721 C 1849.242 2799.721 1851.4805 2801.9595 1851.4805 2804.721 L 1851.4805 2837.3206 C 1851.4805 2840.082 1849.242 2842.3206 1846.4805 2842.3206 L 1644.707 2842.3206 C 1641.9456 2842.3206 1639.707 2840.082 1639.707 2837.3206 L 1639.707 2804.721 C 1639.707 2801.9595 1641.9456 2799.721 1644.707 2799.721 Z" fill="#f90" fill-opacity=".5"/>
            <path d="M 1644.707 2799.721 L 1846.4805 2799.721 C 1849.242 2799.721 1851.4805 2801.9595 1851.4805 2804.721 L 1851.4805 2837.3206 C 1851.4805 2840.082 1849.242 2842.3206 1846.4805 2842.3206 L 1644.707 2842.3206 C 1641.9456 2842.3206 1639.707 2840.082 1639.707 2837.3206 L 1639.707 2804.721 C 1639.707 2801.9595 1641.9456 2799.721 1644.707 2799.721 Z" stroke="gray" stroke-linecap="round" stroke-linejoin="round" stroke-width="1"/>
            <text transform="translate(1644.707 2811.7968)" fill="black">
              <tspan font-family="Helvetica Neue" font-size="16" fill="black" x="29.02272" y="15" xml:space="preserve">Deployment Service</tspan>
            </text>
          </g>
        </g>
        <g id="Group_18">
          <g id="Graphic_10">
            <path d="M 1386.1094 2724.0334 L 1587.8828 2724.0334 C 1590.6442 2724.0334 1592.8828 2726.272 1592.8828 2729.0334 L 1592.8828 2761.633 C 1592.8828 2764.3945 1590.6442 2766.633 1587.8828 2766.633 L 1386.1094 2766.633 C 1383.348 2766.633 1381.1094 2764.3945 1381.1094 2761.633 L 1381.1094 2729.0334 C 1381.1094 2726.272 1383.348 2724.0334 1386.1094 2724.0334 Z" fill="#f90" fill-opacity=".5"/>
            <path d="M 1386.1094 2724.0334 L 1587.8828 2724.0334 C 1590.6442 2724.0334 1592.8828 2726.272 1592.8828 2729.0334 L 1592.8828 2761.633 C 1592.8828 2764.3945 1590.6442 2766.633 1587.8828 2766.633 L 1386.1094 2766.633 C 1383.348 2766.633 1381.1094 2764.3945 1381.1094 2761.633 L 1381.1094 2729.0334 C 1381.1094 2726.272 1383.348 2724.0334 1386.1094 2724.0334 Z" stroke="gray" stroke-linecap="round" stroke-linejoin="round" stroke-width="1"/>
            <text transform="translate(1386.1094 2736.1093)" fill="black">
              <tspan font-family="Helvetica Neue" font-size="16" fill="black" x="33.48672" y="15" xml:space="preserve">Repository Service</tspan>
            </text>
          </g>
          <g id="Graphic_9">
            <path d="M 1649.0703 2724.0334 L 1850.8438 2724.0334 C 1853.6052 2724.0334 1855.8438 2726.272 1855.8438 2729.0334 L 1855.8438 2761.633 C 1855.8438 2764.3945 1853.6052 2766.633 1850.8438 2766.633 L 1649.0703 2766.633 C 1646.3089 2766.633 1644.0703 2764.3945 1644.0703 2761.633 L 1644.0703 2729.0334 C 1644.0703 2726.272 1646.3089 2724.0334 1649.0703 2724.0334 Z" fill="#f90" fill-opacity=".5"/>
            <path d="M 1649.0703 2724.0334 L 1850.8438 2724.0334 C 1853.6052 2724.0334 1855.8438 2726.272 1855.8438 2729.0334 L 1855.8438 2761.633 C 1855.8438 2764.3945 1853.6052 2766.633 1850.8438 2766.633 L 1649.0703 2766.633 C 1646.3089 2766.633 1644.0703 2764.3945 1644.0703 2761.633 L 1644.0703 2729.0334 C 1644.0703 2726.272 1646.3089 2724.0334 1649.0703 2724.0334 Z" stroke="gray" stroke-linecap="round" stroke-linejoin="round" stroke-width="1"/>
            <text transform="translate(1649.0703 2736.1093)" fill="black">
              <tspan font-family="Helvetica Neue" font-size="16" fill="black" x="44.30272" y="15" xml:space="preserve">Catalog Service</tspan>
            </text>
          </g>
        </g>
      </g>
      <g id="Group_16">
        <g id="Graphic_11">
          <path d="M 1267.2305 2991.7002 L 1469.0039 2991.7002 C 1471.7653 2991.7002 1474.0039 2993.9388 1474.0039 2996.7002 L 1474.0039 3029.2998 C 1474.0039 3032.0612 1471.7653 3034.2998 1469.0039 3034.2998 L 1267.2305 3034.2998 C 1264.469 3034.2998 1262.2305 3032.0612 1262.2305 3029.2998 L 1262.2305 2996.7002 C 1262.2305 2993.9388 1264.469 2991.7002 1267.2305 2991.7002 Z" fill="#f90" fill-opacity=".5"/>
          <path d="M 1267.2305 2991.7002 L 1469.0039 2991.7002 C 1471.7653 2991.7002 1474.0039 2993.9388 1474.0039 2996.7002 L 1474.0039 3029.2998 C 1474.0039 3032.0612 1471.7653 3034.2998 1469.0039 3034.2998 L 1267.2305 3034.2998 C 1264.469 3034.2998 1262.2305 3032.0612 1262.2305 3029.2998 L 1262.2305 2996.7002 C 1262.2305 2993.9388 1264.469 2991.7002 1267.2305 2991.7002 Z" stroke="gray" stroke-linecap="round" stroke-linejoin="round" stroke-width="1"/>
          <text transform="translate(1267.2305 3003.776)" fill="black">
            <tspan font-family="Helvetica Neue" font-size="16" fill="black" x="60.45472" y="15" xml:space="preserve">Blazegraph</tspan>
          </text>
        </g>
        <g id="Graphic_12">
          <path d="M 1517.5898 2991.7002 L 1719.3633 2991.7002 C 1722.1247 2991.7002 1724.3633 2993.9388 1724.3633 2996.7002 L 1724.3633 3029.2998 C 1724.3633 3032.0612 1722.1247 3034.2998 1719.3633 3034.2998 L 1517.5898 3034.2998 C 1514.8284 3034.2998 1512.5898 3032.0612 1512.5898 3029.2998 L 1512.5898 2996.7002 C 1512.5898 2993.9388 1514.8284 2991.7002 1517.5898 2991.7002 Z" fill="#f90" fill-opacity=".5"/>
          <path d="M 1517.5898 2991.7002 L 1719.3633 2991.7002 C 1722.1247 2991.7002 1724.3633 2993.9388 1724.3633 2996.7002 L 1724.3633 3029.2998 C 1724.3633 3032.0612 1722.1247 3034.2998 1719.3633 3034.2998 L 1517.5898 3034.2998 C 1514.8284 3034.2998 1512.5898 3032.0612 1512.5898 3029.2998 L 1512.5898 2996.7002 C 1512.5898 2993.9388 1514.8284 2991.7002 1517.5898 2991.7002 Z" stroke="gray" stroke-linecap="round" stroke-linejoin="round" stroke-width="1"/>
          <text transform="translate(1517.5898 3003.776)" fill="black">
            <tspan font-family="Helvetica Neue" font-size="16" fill="black" x="81.32672" y="15" xml:space="preserve">Minio</tspan>
          </text>
        </g>
        <g id="Graphic_13">
          <path d="M 1767.9492 2991.7002 L 1969.7227 2991.7002 C 1972.484 2991.7002 1974.7227 2993.9388 1974.7227 2996.7002 L 1974.7227 3029.2998 C 1974.7227 3032.0612 1972.484 3034.2998 1969.7227 3034.2998 L 1767.9492 3034.2998 C 1765.1878 3034.2998 1762.9492 3032.0612 1762.9492 3029.2998 L 1762.9492 2996.7002 C 1762.9492 2993.9388 1765.1878 2991.7002 1767.9492 2991.7002 Z" fill="#f90" fill-opacity=".5"/>
          <path d="M 1767.9492 2991.7002 L 1969.7227 2991.7002 C 1972.484 2991.7002 1974.7227 2993.9388 1974.7227 2996.7002 L 1974.7227 3029.2998 C 1974.7227 3032.0612 1972.484 3034.2998 1969.7227 3034.2998 L 1767.9492 3034.2998 C 1765.1878 3034.2998 1762.9492 3032.0612 1762.9492 3029.2998 L 1762.9492 2996.7002 C 1762.9492 2993.9388 1765.1878 2991.7002 1767.9492 2991.7002 Z" stroke="gray" stroke-linecap="round" stroke-linejoin="round" stroke-width="1"/>
          <text transform="translate(1767.9492 3003.776)" fill="black">
            <tspan font-family="Helvetica Neue" font-size="16" fill="black" x="66.20672" y="15" xml:space="preserve">Mongodb</tspan>
          </text>
        </g>
      </g>
      <g id="Graphic_14">
        <path d="M 1065.0625 2632.942 L 1992.5 2632.942 C 1995.2614 2632.942 1997.5 2635.1805 1997.5 2637.942 L 1997.5 2670.5415 C 1997.5 2673.303 1995.2614 2675.5415 1992.5 2675.5415 L 1065.0625 2675.5415 C 1062.3011 2675.5415 1060.0625 2673.303 1060.0625 2670.5415 L 1060.0625 2637.942 C 1060.0625 2635.1805 1062.3011 2632.942 1065.0625 2632.942 Z" fill="#19854d" fill-opacity=".20239074"/>
        <path d="M 1065.0625 2632.942 L 1992.5 2632.942 C 1995.2614 2632.942 1997.5 2635.1805 1997.5 2637.942 L 1997.5 2670.5415 C 1997.5 2673.303 1995.2614 2675.5415 1992.5 2675.5415 L 1065.0625 2675.5415 C 1062.3011 2675.5415 1060.0625 2673.303 1060.0625 2670.5415 L 1060.0625 2637.942 C 1060.0625 2635.1805 1062.3011 2632.942 1065.0625 2632.942 Z" stroke="gray" stroke-linecap="round" stroke-linejoin="round" stroke-width="1"/>
        <text transform="translate(1065.0625 2637.942)" fill="black">
          <tspan font-family="Helvetica Neue" font-size="16" fill="black" x="0" y="15" xml:space="preserve">API Gateway / Middleware Layer</tspan>
        </text>
      </g>
      <g id="Graphic_15">
        <path d="M 1065.0625 2563.3838 L 1992.5 2563.3838 C 1995.2614 2563.3838 1997.5 2565.6224 1997.5 2568.3838 L 1997.5 2600.9834 C 1997.5 2603.7448 1995.2614 2605.9834 1992.5 2605.9834 L 1065.0625 2605.9834 C 1062.3011 2605.9834 1060.0625 2603.7448 1060.0625 2600.9834 L 1060.0625 2568.3838 C 1060.0625 2565.6224 1062.3011 2563.3838 1065.0625 2563.3838 Z" fill="#19854d" fill-opacity=".20239074"/>
        <path d="M 1065.0625 2563.3838 L 1992.5 2563.3838 C 1995.2614 2563.3838 1997.5 2565.6224 1997.5 2568.3838 L 1997.5 2600.9834 C 1997.5 2603.7448 1995.2614 2605.9834 1992.5 2605.9834 L 1065.0625 2605.9834 C 1062.3011 2605.9834 1060.0625 2603.7448 1060.0625 2600.9834 L 1060.0625 2568.3838 C 1060.0625 2565.6224 1062.3011 2563.3838 1065.0625 2563.3838 Z" stroke="gray" stroke-linecap="round" stroke-linejoin="round" stroke-width="1"/>
        <text transform="translate(1065.0625 2568.3838)" fill="black">
          <tspan font-family="Helvetica Neue" font-size="16" fill="black" x="0" y="15" xml:space="preserve">User Interface</tspan>
        </text>
      </g>
    </g>
  </g>
</svg>
