<?xml version="1.0" encoding="utf-8"?>
<style><![CDATA[
/* ORNL BPMN Theme - Generated Styles */
.bpmn-diagram.ornl-theme {
  --ornl-primary: #00662C; --ornl-secondary: #00454D; --ornl-background: #FFFFFF; --ornl-text: #373A36; --ornl-error: #FE5000; --ornl-font-family: Inter, system-ui, -apple-system, sans-serif; --ornl-font-size: 12px; --ornl-border-width: 1.5px; --ornl-border-radius: 4px; --bpmn-start-event: #F5B800; --bpmn-end-event: #FE5000; --bpmn-task: #00662C; --bpmn-gateway: #0077C8; --bpmn-sequence-flow: #373A36; --bpmn-pool: #DBDCDB; --bpmn-border: #00454D; --bpmn-highlight: #702F8A;
  
  /* Container styling */
  background: var(--ornl-background);
  border: var(--ornl-border-width) solid var(--ornl-secondary);
  border-radius: var(--ornl-border-radius);
  font-family: var(--ornl-font-family);
  font-size: var(--ornl-font-size);
  overflow: hidden;
}

/* BPMN Element Styling */
.bpmn-diagram.ornl-theme .djs-element {
  color: var(--ornl-text);
}

/* Task Elements */
.bpmn-diagram.ornl-theme .djs-element[data-element-id] rect.djs-visual {
  fill: var(--ornl-background);
  stroke: var(--bpmn-task);
  stroke-width: var(--ornl-border-width);
}

/* Start Events */
.bpmn-diagram.ornl-theme .djs-element[data-element-id*="StartEvent"] circle {
  fill: var(--bpmn-start-event);
  stroke: var(--ornl-secondary);
  stroke-width: var(--ornl-border-width);
}

/* End Events */
.bpmn-diagram.ornl-theme .djs-element[data-element-id*="EndEvent"] circle {
  fill: var(--bpmn-end-event);
  stroke: var(--ornl-secondary);
  stroke-width: var(--ornl-border-width);
}

/* Gateways */
.bpmn-diagram.ornl-theme .djs-element[data-element-id*="Gateway"] path {
  fill: var(--ornl-background);
  stroke: var(--bpmn-gateway);
  stroke-width: var(--ornl-border-width);
}

/* Sequence Flows */
.bpmn-diagram.ornl-theme .djs-element[data-element-id*="SequenceFlow"] path {
  stroke: var(--bpmn-sequence-flow);
  stroke-width: var(--ornl-border-width);
  fill: none;
}

/* Text Labels */
.bpmn-diagram.ornl-theme .djs-label {
  font-family: var(--ornl-font-family);
  font-size: var(--ornl-font-size);
  color: var(--ornl-text);
  fill: var(--ornl-text);
}

/* Pools and Lanes */
.bpmn-diagram.ornl-theme .djs-element[data-element-id*="Pool"] rect,
.bpmn-diagram.ornl-theme .djs-element[data-element-id*="Lane"] rect {
  fill: var(--bpmn-pool);
  stroke: var(--bpmn-border);
  stroke-width: var(--ornl-border-width);
}

/* Error States */
.bpmn-diagram.ornl-theme .bpmn-error {
  border-color: var(--ornl-error);
  background-color: rgba(254, 80, 0, 0.1); /* FORGE orange with opacity */
}

/* Loading States */
.bpmn-diagram.ornl-theme .bpmn-loading {
  display: flex;
  align-items: center;
  justify-content: center;
  padding: 2rem;
  color: var(--ornl-text);
}

.bpmn-diagram.ornl-theme .bpmn-loading .spinner {
  width: 20px;
  height: 20px;
  border: 2px solid var(--ornl-secondary);
  border-top: 2px solid var(--ornl-primary);
  border-radius: 50%;
  animation: ornl-spin 1s linear infinite;
  margin-right: 0.5rem;
}

@keyframes ornl-spin {
  0% { transform: rotate(0deg); }
  100% { transform: rotate(360deg); }
}

/* Responsive Design */
@media (max-width: 768px) {
  .bpmn-diagram.ornl-theme {
    font-size: 10px;
  }
}

@media (prefers-reduced-motion: reduce) {
  .bpmn-diagram.ornl-theme .spinner {
    animation: none;
  }
}
]]></style>

<!-- created with bpmn-js / http://bpmn.io -->
<!DOCTYPE svg PUBLIC "-//W3C//DTD SVG 1.1//EN" "http://www.w3.org/Graphics/SVG/1.1/DTD/svg11.dtd">
<svg xmlns="http://www.w3.org/2000/svg" xmlns:xlink="http://www.w3.org/1999/xlink" width="800" height="600" viewBox="151 75 1043 644.2952270507812" version="1.1"><g class="djs-group"><g class="djs-element djs-shape" data-element-id="StartEvent_12mgqza" style="display: block;" transform="matrix(1 0 0 1 156 422)"><g class="djs-visual"><circle cx="18" cy="18" r="18" style="stroke-linecap: round; stroke-linejoin: round; stroke: hsl(225, 10%, 15%); stroke-width: 2px; fill: white; fill-opacity: 0.95;"/></g><rect style="fill: none; stroke-opacity: 0; stroke: white; stroke-width: 15px;" class="djs-hit djs-hit-all" x="0" y="0" width="36" height="36"/><circle cx="18" cy="18" r="23" style="fill: none;" class="djs-outline"/></g></g><g class="djs-group"><g class="djs-element djs-shape" data-element-id="Activity_1p9ghbq" style="display: block;" transform="matrix(1 0 0 1 350 400)"><g class="djs-visual"><rect x="0" y="0" width="100" height="80" rx="10" ry="10" style="stroke-linecap: round; stroke-linejoin: round; stroke: hsl(225, 10%, 15%); stroke-width: 2px; fill: white; fill-opacity: 0.95;"/><text style="font-family: Arial, sans-serif; font-size: 12px; font-weight: normal; fill: hsl(225, 10%, 15%);" lineHeight="1.2" class="djs-label"><tspan x="0" y="-14.000000000000014">S</tspan><tspan x="0" y="0.39999999999998437">y</tspan><tspan x="0" y="14.799999999999983">n</tspan><tspan x="0" y="29.19999999999998">t</tspan><tspan x="0" y="43.59999999999998">h</tspan><tspan x="0" y="57.99999999999998">e</tspan><tspan x="0" y="72.39999999999998">s</tspan><tspan x="0" y="86.79999999999998">i</tspan><tspan x="0" y="101.19999999999999">s</tspan></text></g><rect style="fill: none; stroke-opacity: 0; stroke: white; stroke-width: 15px;" class="djs-hit djs-hit-all" x="0" y="0" width="100" height="80"/><rect x="-5" y="-5" rx="14" width="110" height="90" style="fill: none;" class="djs-outline"/></g></g><g class="djs-group"><g class="djs-element djs-shape" data-element-id="Activity_1ypsgxa" style="display: block;" transform="matrix(1 0 0 1 590 400)"><g class="djs-visual"><rect x="0" y="0" width="100" height="80" rx="10" ry="10" style="stroke-linecap: round; stroke-linejoin: round; stroke: hsl(225, 10%, 15%); stroke-width: 2px; fill: white; fill-opacity: 0.95;"/><text style="font-family: Arial, sans-serif; font-size: 12px; font-weight: normal; fill: hsl(225, 10%, 15%);" lineHeight="1.2" class="djs-label"><tspan x="0" y="29.200000000000003">X</tspan><tspan x="0" y="43.6">R</tspan><tspan x="0" y="58">D</tspan></text></g><rect style="fill: none; stroke-opacity: 0; stroke: white; stroke-width: 15px;" class="djs-hit djs-hit-all" x="0" y="0" width="100" height="80"/><rect x="-5" y="-5" rx="14" width="110" height="90" style="fill: none;" class="djs-outline"/></g></g><g class="djs-group"><g class="djs-element djs-shape" data-element-id="DataObjectReference_12xbc6i" style="display: block;" transform="matrix(1 0 0 1 252 295)"><g class="djs-visual"><path style="fill: white; stroke-linecap: round; stroke-linejoin: round; stroke: hsl(225, 10%, 15%); stroke-width: 2px; fill-opacity: 0.95;" d="m 0,0 28.23529411764706,0 7.058823529411765,8.196721311475411 0,40.98360655737705 -35.294117647058826,0 0,-49.18032786885246 28.23529411764706,0 0,8.196721311475411 7.058823529411765,0"/></g><rect style="fill: none; stroke-opacity: 0; stroke: white; stroke-width: 15px;" class="djs-hit djs-hit-all" x="0" y="0" width="36" height="50"/><path d="M44.7648 11.3263L36.9892 2.64074C36.0451 1.58628 34.5651 0.988708 33.1904 0.988708H5.98667C3.22688 0.988708 0.989624 3.34892 0.989624 6.26039V55.0235C0.989624 57.9349 3.22688 60.2952 5.98667 60.2952H40.966C43.7257 60.2952 45.963 57.9349 45.963 55.0235V14.9459C45.963 13.5998 45.6407 12.3048 44.7648 11.3263Z" style="stroke-width: 2px; fill: none;" transform="translate(-6, -6)" class="djs-outline"/></g></g><g class="djs-group"><g class="djs-element djs-shape" data-element-id="DataObjectReference_0v260gj" style="display: block;" transform="matrix(1 0 0 1 252 215)"><g class="djs-visual"><path style="fill: white; stroke-linecap: round; stroke-linejoin: round; stroke: hsl(225, 10%, 15%); stroke-width: 2px; fill-opacity: 0.95;" d="m 0,0 28.23529411764706,0 7.058823529411765,8.196721311475411 0,40.98360655737705 -35.294117647058826,0 0,-49.18032786885246 28.23529411764706,0 0,8.196721311475411 7.058823529411765,0"/></g><rect style="fill: none; stroke-opacity: 0; stroke: white; stroke-width: 15px;" class="djs-hit djs-hit-all" x="0" y="0" width="36" height="50"/><path d="M44.7648 11.3263L36.9892 2.64074C36.0451 1.58628 34.5651 0.988708 33.1904 0.988708H5.98667C3.22688 0.988708 0.989624 3.34892 0.989624 6.26039V55.0235C0.989624 57.9349 3.22688 60.2952 5.98667 60.2952H40.966C43.7257 60.2952 45.963 57.9349 45.963 55.0235V14.9459C45.963 13.5998 45.6407 12.3048 44.7648 11.3263Z" style="stroke-width: 2px; fill: none;" transform="translate(-6, -6)" class="djs-outline"/></g></g><g class="djs-group"><g class="djs-element djs-shape" data-element-id="DataObjectReference_14txk9p" style="display: block;" transform="matrix(1 0 0 1 590 215)"><g class="djs-visual"><path style="fill: white; stroke-linecap: round; stroke-linejoin: round; stroke: hsl(225, 10%, 15%); stroke-width: 2px; fill-opacity: 0.95;" d="m 0,0 28.23529411764706,0 7.058823529411765,8.196721311475411 0,40.98360655737705 -35.294117647058826,0 0,-49.18032786885246 28.23529411764706,0 0,8.196721311475411 7.058823529411765,0"/></g><rect style="fill: none; stroke-opacity: 0; stroke: white; stroke-width: 15px;" class="djs-hit djs-hit-all" x="0" y="0" width="36" height="50"/><path d="M44.7648 11.3263L36.9892 2.64074C36.0451 1.58628 34.5651 0.988708 33.1904 0.988708H5.98667C3.22688 0.988708 0.989624 3.34892 0.989624 6.26039V55.0235C0.989624 57.9349 3.22688 60.2952 5.98667 60.2952H40.966C43.7257 60.2952 45.963 57.9349 45.963 55.0235V14.9459C45.963 13.5998 45.6407 12.3048 44.7648 11.3263Z" style="stroke-width: 2px; fill: none;" transform="translate(-6, -6)" class="djs-outline"/></g></g><g class="djs-group"><g class="djs-element djs-shape" data-element-id="Activity_073f9nd" style="display: block;" transform="matrix(1 0 0 1 870 400)"><g class="djs-visual"><rect x="0" y="0" width="100" height="80" rx="10" ry="10" style="stroke-linecap: round; stroke-linejoin: round; stroke: hsl(225, 10%, 15%); stroke-width: 2px; fill: white; fill-opacity: 0.95;"/><text style="font-family: Arial, sans-serif; font-size: 12px; font-weight: normal; fill: hsl(225, 10%, 15%);" lineHeight="1.2" class="djs-label"><tspan x="0" y="-64.40000000000003">R</tspan><tspan x="0" y="-50.000000000000036">e</tspan><tspan x="0" y="-35.60000000000004">f</tspan><tspan x="0" y="-21.20000000000004">i</tspan><tspan x="0" y="-6.80000000000004">n</tspan><tspan x="0" y="7.599999999999959">e</tspan><tspan x="0" y="21.999999999999957">m</tspan><tspan x="0" y="36.399999999999956">e</tspan><tspan x="0" y="50.799999999999955">n</tspan><tspan x="0" y="65.19999999999996">t</tspan><tspan x="0" y="79.59999999999997">(</tspan><tspan x="0" y="93.99999999999997">N</tspan><tspan x="0" y="108.39999999999998">D</tspan><tspan x="0" y="122.79999999999998">I</tspan><tspan x="0" y="137.2">P</tspan><tspan x="0" y="151.6">)</tspan></text></g><rect style="fill: none; stroke-opacity: 0; stroke: white; stroke-width: 15px;" class="djs-hit djs-hit-all" x="0" y="0" width="100" height="80"/><rect x="-5" y="-5" rx="14" width="110" height="90" style="fill: none;" class="djs-outline"/></g></g><g class="djs-group"><g class="djs-element djs-shape" data-element-id="DataObjectReference_1txf9wl" style="display: block;" transform="matrix(1 0 0 1 642 285)"><g class="djs-visual"><path style="fill: white; stroke-linecap: round; stroke-linejoin: round; stroke: hsl(225, 10%, 15%); stroke-width: 2px; fill-opacity: 0.95;" d="m 0,0 28.23529411764706,0 7.058823529411765,8.196721311475411 0,40.98360655737705 -35.294117647058826,0 0,-49.18032786885246 28.23529411764706,0 0,8.196721311475411 7.058823529411765,0"/></g><rect style="fill: none; stroke-opacity: 0; stroke: white; stroke-width: 15px;" class="djs-hit djs-hit-all" x="0" y="0" width="36" height="50"/><path d="M44.7648 11.3263L36.9892 2.64074C36.0451 1.58628 34.5651 0.988708 33.1904 0.988708H5.98667C3.22688 0.988708 0.989624 3.34892 0.989624 6.26039V55.0235C0.989624 57.9349 3.22688 60.2952 5.98667 60.2952H40.966C43.7257 60.2952 45.963 57.9349 45.963 55.0235V14.9459C45.963 13.5998 45.6407 12.3048 44.7648 11.3263Z" style="stroke-width: 2px; fill: none;" transform="translate(-6, -6)" class="djs-outline"/></g></g><g class="djs-group"><g class="djs-element djs-shape" data-element-id="DataObjectReference_0g5y67g" style="display: block;" transform="matrix(1 0 0 1 772 105)"><g class="djs-visual"><path style="fill: white; stroke-linecap: round; stroke-linejoin: round; stroke: hsl(225, 10%, 15%); stroke-width: 2px; fill-opacity: 0.95;" d="m 0,0 28.23529411764706,0 7.058823529411765,8.196721311475411 0,40.98360655737705 -35.294117647058826,0 0,-49.18032786885246 28.23529411764706,0 0,8.196721311475411 7.058823529411765,0"/></g><rect style="fill: none; stroke-opacity: 0; stroke: white; stroke-width: 15px;" class="djs-hit djs-hit-all" x="0" y="0" width="36" height="50"/><path d="M44.7648 11.3263L36.9892 2.64074C36.0451 1.58628 34.5651 0.988708 33.1904 0.988708H5.98667C3.22688 0.988708 0.989624 3.34892 0.989624 6.26039V55.0235C0.989624 57.9349 3.22688 60.2952 5.98667 60.2952H40.966C43.7257 60.2952 45.963 57.9349 45.963 55.0235V14.9459C45.963 13.5998 45.6407 12.3048 44.7648 11.3263Z" style="stroke-width: 2px; fill: none;" transform="translate(-6, -6)" class="djs-outline"/></g></g><g class="djs-group"><g class="djs-element djs-shape" data-element-id="Event_1xqcsqj" style="display: block;" transform="matrix(1 0 0 1 1152 422)"><g class="djs-visual"><circle cx="18" cy="18" r="18" style="stroke-linecap: round; stroke-linejoin: round; stroke: hsl(225, 10%, 15%); stroke-width: 4px; fill: white; fill-opacity: 0.95;"/></g><rect style="fill: none; stroke-opacity: 0; stroke: white; stroke-width: 15px;" class="djs-hit djs-hit-all" x="0" y="0" width="36" height="36"/><circle cx="18" cy="18" r="24" style="fill: none;" class="djs-outline"/></g></g><g class="djs-group"><g class="djs-element djs-shape" data-element-id="DataObjectReference_0yjoaji" style="display: block;"><g class="djs-visual"><path style="fill: white; stroke-linecap: round; stroke-linejoin: round; stroke: hsl(225, 10%, 15%); stroke-width: 2px; fill-opacity: 0.95;" d="m 0,0 28.23529411764706,0 7.058823529411765,8.196721311475411 0,40.98360655737705 -35.294117647058826,0 0,-49.18032786885246 28.23529411764706,0 0,8.196721311475411 7.058823529411765,0"/></g><rect style="fill: none; stroke-opacity: 0; stroke: white; stroke-width: 15px;" class="djs-hit djs-hit-all" x="0" y="0" width="36" height="50"/><path d="M44.7648 11.3263L36.9892 2.64074C36.0451 1.58628 34.5651 0.988708 33.1904 0.988708H5.98667C3.22688 0.988708 0.989624 3.34892 0.989624 6.26039V55.0235C0.989624 57.9349 3.22688 60.2952 5.98667 60.2952H40.966C43.7257 60.2952 45.963 57.9349 45.963 55.0235V14.9459C45.963 13.5998 45.6407 12.3048 44.7648 11.3263Z" style="stroke-width: 2px; fill: none;" transform="translate(-6, -6)" class="djs-outline"/></g></g><g class="djs-group"><g class="djs-element djs-shape" data-element-id="DataObjectReference_0hv5nwm" style="display: block;"><g class="djs-visual"><path style="fill: white; stroke-linecap: round; stroke-linejoin: round; stroke: hsl(225, 10%, 15%); stroke-width: 2px; fill-opacity: 0.95;" d="m 0,0 28.23529411764706,0 7.058823529411765,8.196721311475411 0,40.98360655737705 -35.294117647058826,0 0,-49.18032786885246 28.23529411764706,0 0,8.196721311475411 7.058823529411765,0"/></g><rect style="fill: none; stroke-opacity: 0; stroke: white; stroke-width: 15px;" class="djs-hit djs-hit-all" x="0" y="0" width="36" height="50"/><path d="M44.7648 11.3263L36.9892 2.64074C36.0451 1.58628 34.5651 0.988708 33.1904 0.988708H5.98667C3.22688 0.988708 0.989624 3.34892 0.989624 6.26039V55.0235C0.989624 57.9349 3.22688 60.2952 5.98667 60.2952H40.966C43.7257 60.2952 45.963 57.9349 45.963 55.0235V14.9459C45.963 13.5998 45.6407 12.3048 44.7648 11.3263Z" style="stroke-width: 2px; fill: none;" transform="translate(-6, -6)" class="djs-outline"/></g></g><g class="djs-group"><g class="djs-element djs-shape" data-element-id="DataObjectReference_121csbv" style="display: block;"><g class="djs-visual"><path style="fill: white; stroke-linecap: round; stroke-linejoin: round; stroke: hsl(225, 10%, 15%); stroke-width: 2px; fill-opacity: 0.95;" d="m 0,0 28.23529411764706,0 7.058823529411765,8.196721311475411 0,40.98360655737705 -35.294117647058826,0 0,-49.18032786885246 28.23529411764706,0 0,8.196721311475411 7.058823529411765,0"/></g><rect style="fill: none; stroke-opacity: 0; stroke: white; stroke-width: 15px;" class="djs-hit djs-hit-all" x="0" y="0" width="36" height="50"/><path d="M44.7648 11.3263L36.9892 2.64074C36.0451 1.58628 34.5651 0.988708 33.1904 0.988708H5.98667C3.22688 0.988708 0.989624 3.34892 0.989624 6.26039V55.0235C0.989624 57.9349 3.22688 60.2952 5.98667 60.2952H40.966C43.7257 60.2952 45.963 57.9349 45.963 55.0235V14.9459C45.963 13.5998 45.6407 12.3048 44.7648 11.3263Z" style="stroke-width: 2px; fill: none;" transform="translate(-6, -6)" class="djs-outline"/></g></g><g class="djs-group"><g class="djs-element djs-shape" data-element-id="DataObjectReference_1xrkz4j" style="display: block;"><g class="djs-visual"><path style="fill: white; stroke-linecap: round; stroke-linejoin: round; stroke: hsl(225, 10%, 15%); stroke-width: 2px; fill-opacity: 0.95;" d="m 0,0 28.23529411764706,0 7.058823529411765,8.196721311475411 0,40.98360655737705 -35.294117647058826,0 0,-49.18032786885246 28.23529411764706,0 0,8.196721311475411 7.058823529411765,0"/></g><rect style="fill: none; stroke-opacity: 0; stroke: white; stroke-width: 15px;" class="djs-hit djs-hit-all" x="0" y="0" width="36" height="50"/><path d="M44.7648 11.3263L36.9892 2.64074C36.0451 1.58628 34.5651 0.988708 33.1904 0.988708H5.98667C3.22688 0.988708 0.989624 3.34892 0.989624 6.26039V55.0235C0.989624 57.9349 3.22688 60.2952 5.98667 60.2952H40.966C43.7257 60.2952 45.963 57.9349 45.963 55.0235V14.9459C45.963 13.5998 45.6407 12.3048 44.7648 11.3263Z" style="stroke-width: 2px; fill: none;" transform="translate(-6, -6)" class="djs-outline"/></g></g><g class="djs-group"><g class="djs-element djs-shape" data-element-id="TextAnnotation_0404mvd" style="display: block;"><g class="djs-visual"><rect x="0" y="0" width="100" height="40" rx="0" ry="0" style="stroke-linecap: round; stroke-linejoin: round; stroke: none; stroke-width: 2px; fill: none;"/><path style="fill: none; stroke-linecap: round; stroke-linejoin: round; stroke: hsl(225, 10%, 15%); stroke-width: 2px;" d="m 0, 0 m 10,0 l -10,0 l 0,40 l 10,0"/><text style="font-family: Arial, sans-serif; font-size: 12px; font-weight: normal; fill: hsl(225, 10%, 15%);" lineHeight="1.2" class="djs-label"><tspan x="7" y="17.799999999999997">C</tspan><tspan x="7" y="32.199999999999996">h</tspan><tspan x="7" y="46.599999999999994">e</tspan><tspan x="7" y="60.99999999999999">m</tspan><tspan x="7" y="75.39999999999999">s</tspan><tspan x="7" y="89.79999999999998">p</tspan><tspan x="7" y="104.19999999999999">e</tspan><tspan x="7" y="118.6">e</tspan><tspan x="7" y="133">d</tspan><tspan x="7" y="147.4">P</tspan><tspan x="7" y="161.8">r</tspan><tspan x="7" y="176.20000000000002">o</tspan><tspan x="7" y="190.60000000000002">g</tspan><tspan x="7" y="205.00000000000003">r</tspan><tspan x="7" y="219.40000000000003">a</tspan><tspan x="7" y="233.80000000000004">m</tspan></text></g><rect style="fill: none; stroke-opacity: 0; stroke: white; stroke-width: 15px;" class="djs-hit djs-hit-all" x="0" y="0" width="100" height="40"/><rect x="-5" y="-5" rx="4" width="110" height="50" style="fill: none;" class="djs-outline"/></g></g><g class="djs-group"><g class="djs-element djs-shape" data-element-id="TextAnnotation_1c0e62l" style="display: block;"><g class="djs-visual"><rect x="0" y="0" width="100" height="30" rx="0" ry="0" style="stroke-linecap: round; stroke-linejoin: round; stroke: none; stroke-width: 2px; fill: none;"/><path style="fill: none; stroke-linecap: round; stroke-linejoin: round; stroke: hsl(225, 10%, 15%); stroke-width: 2px;" d="m 0, 0 m 10,0 l -10,0 l 0,30 l 10,0"/><text style="font-family: Arial, sans-serif; font-size: 12px; font-weight: normal; fill: hsl(225, 10%, 15%);" lineHeight="1.2" class="djs-label"><tspan x="7" y="17.799999999999997">X</tspan><tspan x="7" y="32.199999999999996">R</tspan><tspan x="7" y="46.599999999999994">D</tspan><tspan x="7" y="60.99999999999999">M</tspan><tspan x="7" y="75.39999999999999">L</tspan></text></g><rect style="fill: none; stroke-opacity: 0; stroke: white; stroke-width: 15px;" class="djs-hit djs-hit-all" x="0" y="0" width="100" height="30"/><rect x="-5" y="-5" rx="4" width="110" height="40" style="fill: none;" class="djs-outline"/></g></g><g class="djs-group"><g class="djs-element djs-shape" data-element-id="TextAnnotation_012qgg8" style="display: block;"><g class="djs-visual"><rect x="0" y="0" width="100" height="30" rx="0" ry="0" style="stroke-linecap: round; stroke-linejoin: round; stroke: none; stroke-width: 2px; fill: none;"/><path style="fill: none; stroke-linecap: round; stroke-linejoin: round; stroke: hsl(225, 10%, 15%); stroke-width: 2px;" d="m 0, 0 m 10,0 l -10,0 l 0,30 l 10,0"/><text style="font-family: Arial, sans-serif; font-size: 12px; font-weight: normal; fill: hsl(225, 10%, 15%);" lineHeight="1.2" class="djs-label"><tspan x="7" y="17.799999999999997">X</tspan><tspan x="7" y="32.199999999999996">Y</tspan><tspan x="7" y="46.599999999999994">E</tspan></text></g><rect style="fill: none; stroke-opacity: 0; stroke: white; stroke-width: 15px;" class="djs-hit djs-hit-all" x="0" y="0" width="100" height="30"/><rect x="-5" y="-5" rx="4" width="110" height="40" style="fill: none;" class="djs-outline"/></g></g><g class="djs-group"><g class="djs-element djs-shape" data-element-id="TextAnnotation_1l6653w" style="display: block;"><g class="djs-visual"><rect x="0" y="0" width="100" height="30" rx="0" ry="0" style="stroke-linecap: round; stroke-linejoin: round; stroke: none; stroke-width: 2px; fill: none;"/><path style="fill: none; stroke-linecap: round; stroke-linejoin: round; stroke: hsl(225, 10%, 15%); stroke-width: 2px;" d="m 0, 0 m 10,0 l -10,0 l 0,30 l 10,0"/><text style="font-family: Arial, sans-serif; font-size: 12px; font-weight: normal; fill: hsl(225, 10%, 15%);" lineHeight="1.2" class="djs-label"><tspan x="7" y="17.799999999999997">C</tspan><tspan x="7" y="32.199999999999996">I</tspan><tspan x="7" y="46.599999999999994">F</tspan></text></g><rect style="fill: none; stroke-opacity: 0; stroke: white; stroke-width: 15px;" class="djs-hit djs-hit-all" x="0" y="0" width="100" height="30"/><rect x="-5" y="-5" rx="4" width="110" height="40" style="fill: none;" class="djs-outline"/></g></g><g class="djs-group"><g class="djs-element djs-shape" data-element-id="TextAnnotation_1lm0jai" style="display: block;"><g class="djs-visual"><rect x="0" y="0" width="100" height="30" rx="0" ry="0" style="stroke-linecap: round; stroke-linejoin: round; stroke: none; stroke-width: 2px; fill: none;"/><path style="fill: none; stroke-linecap: round; stroke-linejoin: round; stroke: hsl(225, 10%, 15%); stroke-width: 2px;" d="m 0, 0 m 10,0 l -10,0 l 0,30 l 10,0"/><text style="font-family: Arial, sans-serif; font-size: 12px; font-weight: normal; fill: hsl(225, 10%, 15%);" lineHeight="1.2" class="djs-label"><tspan x="7" y="17.799999999999997">g</tspan><tspan x="7" y="32.199999999999996">p</tspan><tspan x="7" y="46.599999999999994">x</tspan></text></g><rect style="fill: none; stroke-opacity: 0; stroke: white; stroke-width: 15px;" class="djs-hit djs-hit-all" x="0" y="0" width="100" height="30"/><rect x="-5" y="-5" rx="4" width="110" height="40" style="fill: none;" class="djs-outline"/></g></g><g class="djs-group"><g class="djs-element djs-shape" data-element-id="TextAnnotation_0339zkn" style="display: block;"><g class="djs-visual"><rect x="0" y="0" width="100" height="30" rx="0" ry="0" style="stroke-linecap: round; stroke-linejoin: round; stroke: none; stroke-width: 2px; fill: none;"/><path style="fill: none; stroke-linecap: round; stroke-linejoin: round; stroke: hsl(225, 10%, 15%); stroke-width: 2px;" d="m 0, 0 m 10,0 l -10,0 l 0,30 l 10,0"/><text style="font-family: Arial, sans-serif; font-size: 12px; font-weight: normal; fill: hsl(225, 10%, 15%);" lineHeight="1.2" class="djs-label"><tspan x="7" y="17.799999999999997">j</tspan><tspan x="7" y="32.199999999999996">s</tspan><tspan x="7" y="46.599999999999994">o</tspan><tspan x="7" y="60.99999999999999">n</tspan></text></g><rect style="fill: none; stroke-opacity: 0; stroke: white; stroke-width: 15px;" class="djs-hit djs-hit-all" x="0" y="0" width="100" height="30"/><rect x="-5" y="-5" rx="4" width="110" height="40" style="fill: none;" class="djs-outline"/></g></g><g class="djs-group"><g class="djs-element djs-shape" data-element-id="TextAnnotation_0wl2nco" style="display: block;"><g class="djs-visual"><rect x="0" y="0" width="100" height="30" rx="0" ry="0" style="stroke-linecap: round; stroke-linejoin: round; stroke: none; stroke-width: 2px; fill: none;"/><path style="fill: none; stroke-linecap: round; stroke-linejoin: round; stroke: hsl(225, 10%, 15%); stroke-width: 2px;" d="m 0, 0 m 10,0 l -10,0 l 0,30 l 10,0"/><text style="font-family: Arial, sans-serif; font-size: 12px; font-weight: normal; fill: hsl(225, 10%, 15%);" lineHeight="1.2" class="djs-label"><tspan x="7" y="17.799999999999997">l</tspan><tspan x="7" y="32.199999999999996">s</tspan><tspan x="7" y="46.599999999999994">t</tspan></text></g><rect style="fill: none; stroke-opacity: 0; stroke: white; stroke-width: 15px;" class="djs-hit djs-hit-all" x="0" y="0" width="100" height="30"/><rect x="-5" y="-5" rx="4" width="110" height="40" style="fill: none;" class="djs-outline"/></g></g><g class="djs-group"><g class="djs-element djs-shape" data-element-id="TextAnnotation_1rubdru" style="display: block;"><g class="djs-visual"><rect x="0" y="0" width="100" height="30" rx="0" ry="0" style="stroke-linecap: round; stroke-linejoin: round; stroke: none; stroke-width: 2px; fill: none;"/><path style="fill: none; stroke-linecap: round; stroke-linejoin: round; stroke: hsl(225, 10%, 15%); stroke-width: 2px;" d="m 0, 0 m 10,0 l -10,0 l 0,30 l 10,0"/><text style="font-family: Arial, sans-serif; font-size: 12px; font-weight: normal; fill: hsl(225, 10%, 15%);" lineHeight="1.2" class="djs-label"><tspan x="7" y="17.799999999999997">i</tspan><tspan x="7" y="32.199999999999996">n</tspan><tspan x="7" y="46.599999999999994">s</tspan><tspan x="7" y="60.99999999999999">t</tspan><tspan x="7" y="75.39999999999999">p</tspan><tspan x="7" y="89.79999999999998">r</tspan><tspan x="7" y="104.19999999999999">m</tspan></text></g><rect style="fill: none; stroke-opacity: 0; stroke: white; stroke-width: 15px;" class="djs-hit djs-hit-all" x="0" y="0" width="100" height="30"/><rect x="-5" y="-5" rx="4" width="110" height="40" style="fill: none;" class="djs-outline"/></g></g><g class="djs-group"><g class="djs-element djs-connection" data-element-id="DataInputAssociation_0j8g6kd" style="display: block;"><g class="djs-visual"><defs><marker id="marker-en5vpsip7c7qxx2sd8d7tpvc5" viewBox="0 0 20 20" refX="11" refY="10" markerWidth="10" markerHeight="10" orient="auto"><path d="M 1 5 L 11 10 L 1 15" style="fill: none; stroke-linecap: round; stroke-linejoin: round; stroke: hsl(225, 10%, 15%); stroke-width: 1.5px; stroke-dasharray: 10000,1;"/></marker></defs><path style="fill: none; stroke-linecap: round; stroke-linejoin: round; stroke: hsl(225, 10%, 15%); stroke-width: 2px; marker-end: url(#marker-en5vpsip7c7qxx2sd8d7tpvc5); stroke-dasharray: 0, 5;" data-corner-radius="5" d="M288,320L365,320C367.5,320,370,322.5,370,325L370,400"/></g><rect x="283" y="315" rx="4" width="92" height="90" style="fill: none;" class="djs-outline"/><path d="M288,320L370,320L370,400" style="fill: none; stroke-opacity: 0; stroke: white; stroke-width: 15px;" class="djs-hit djs-hit-stroke"/></g></g><g class="djs-group"><g class="djs-element djs-connection" data-element-id="DataInputAssociation_0l8f38y" style="display: block;"><g class="djs-visual"><defs><marker id="marker-71rv461h943sxjpmyeqeihom3" viewBox="0 0 20 20" refX="11" refY="10" markerWidth="10" markerHeight="10" orient="auto"><path d="M 1 5 L 11 10 L 1 15" style="fill: none; stroke-linecap: round; stroke-linejoin: round; stroke: hsl(225, 10%, 15%); stroke-width: 1.5px; stroke-dasharray: 10000,1;"/></marker></defs><path style="fill: none; stroke-linecap: round; stroke-linejoin: round; stroke: hsl(225, 10%, 15%); stroke-width: 2px; marker-end: url(#marker-71rv461h943sxjpmyeqeihom3); stroke-dasharray: 0, 5;" data-corner-radius="5" d="M288,240L395,240C397.5,240,400,242.5,400,245L400,400"/></g><rect x="283" y="235" rx="4" width="122" height="170" style="fill: none;" class="djs-outline"/><path d="M288,240L400,240L400,400" style="fill: none; stroke-opacity: 0; stroke: white; stroke-width: 15px;" class="djs-hit djs-hit-stroke"/></g></g><g class="djs-group"><g class="djs-element djs-connection" data-element-id="DataOutputAssociation_1djsbup" style="display: block;"><g class="djs-visual"><defs><marker id="marker-8kik3bhwcz5g1rcwltyw8zwml" viewBox="0 0 20 20" refX="11" refY="10" markerWidth="10" markerHeight="10" orient="auto"><path d="M 1 5 L 11 10 L 1 15" style="fill: none; stroke-linecap: round; stroke-linejoin: round; stroke: hsl(225, 10%, 15%); stroke-width: 1.5px; stroke-dasharray: 10000,1;"/></marker></defs><path style="fill: none; stroke-linecap: round; stroke-linejoin: round; stroke: hsl(225, 10%, 15%); stroke-width: 2px; marker-end: url(#marker-8kik3bhwcz5g1rcwltyw8zwml); stroke-dasharray: 0, 5;" data-corner-radius="5" d="M610,400L610,265"/></g><rect x="605" y="260" rx="4" width="10" height="145" style="fill: none;" class="djs-outline"/><path d="M610,400L610,265" style="fill: none; stroke-opacity: 0; stroke: white; stroke-width: 15px;" class="djs-hit djs-hit-stroke"/></g></g><g class="djs-group"><g class="djs-element djs-connection" data-element-id="DataOutputAssociation_030l3s8" style="display: block;"><g class="djs-visual"><defs><marker id="marker-3ydksw0ymjjitim7xb5fcfoox" viewBox="0 0 20 20" refX="11" refY="10" markerWidth="10" markerHeight="10" orient="auto"><path d="M 1 5 L 11 10 L 1 15" style="fill: none; stroke-linecap: round; stroke-linejoin: round; stroke: hsl(225, 10%, 15%); stroke-width: 1.5px; stroke-dasharray: 10000,1;"/></marker></defs><path style="fill: none; stroke-linecap: round; stroke-linejoin: round; stroke: hsl(225, 10%, 15%); stroke-width: 2px; marker-end: url(#marker-3ydksw0ymjjitim7xb5fcfoox); stroke-dasharray: 0, 5;" data-corner-radius="5" d="M658,400L658,335"/></g><rect x="653" y="330" rx="4" width="10" height="75" style="fill: none;" class="djs-outline"/><path d="M658,400L658,335" style="fill: none; stroke-opacity: 0; stroke: white; stroke-width: 15px;" class="djs-hit djs-hit-stroke"/></g></g><g class="djs-group"><g class="djs-element djs-connection" data-element-id="Flow_05hec00" style="display: block;"><g class="djs-visual"><defs><marker id="marker-21598hpth1p87e6xpe19pzxay" viewBox="0 0 20 20" refX="11" refY="10" markerWidth="10" markerHeight="10" orient="auto"><path d="M 1 5 L 11 10 L 1 15 Z" style="stroke-linecap: round; stroke-linejoin: round; stroke: hsl(225, 10%, 15%); stroke-width: 1px; fill: hsl(225, 10%, 15%);"/></marker></defs><path style="fill: none; stroke-linecap: round; stroke-linejoin: round; stroke: hsl(225, 10%, 15%); stroke-width: 2px; marker-end: url(#marker-21598hpth1p87e6xpe19pzxay);" data-corner-radius="5" d="M450,440L590,440"/></g><rect x="445" y="435" rx="4" width="150" height="10" style="fill: none;" class="djs-outline"/><path d="M450,440L590,440" style="fill: none; stroke-opacity: 0; stroke: white; stroke-width: 15px;" class="djs-hit djs-hit-stroke"/></g></g><g class="djs-group"><g class="djs-element djs-connection" data-element-id="DataInputAssociation_1na4duo" style="display: block;"><g class="djs-visual"><defs><marker id="marker-c2nwgj5ir4uyfod58a9ot0wox" viewBox="0 0 20 20" refX="11" refY="10" markerWidth="10" markerHeight="10" orient="auto"><path d="M 1 5 L 11 10 L 1 15" style="fill: none; stroke-linecap: round; stroke-linejoin: round; stroke: hsl(225, 10%, 15%); stroke-width: 1.5px; stroke-dasharray: 10000,1;"/></marker></defs><path style="fill: none; stroke-linecap: round; stroke-linejoin: round; stroke: hsl(225, 10%, 15%); stroke-width: 2px; marker-end: url(#marker-c2nwgj5ir4uyfod58a9ot0wox); stroke-dasharray: 0, 5;" data-corner-radius="5" d="M678,310L885,310C887.5,310,890,312.5,890,315L890,400"/></g><rect x="673" y="305" rx="4" width="222" height="100" style="fill: none;" class="djs-outline"/><path d="M678,310L890,310L890,400" style="fill: none; stroke-opacity: 0; stroke: white; stroke-width: 15px;" class="djs-hit djs-hit-stroke"/></g></g><g class="djs-group"><g class="djs-element djs-connection" data-element-id="DataInputAssociation_1o0u8mi" style="display: block;"><g class="djs-visual"><defs><marker id="marker-4citca001nrnr7q5dqlpcspzd" viewBox="0 0 20 20" refX="11" refY="10" markerWidth="10" markerHeight="10" orient="auto"><path d="M 1 5 L 11 10 L 1 15" style="fill: none; stroke-linecap: round; stroke-linejoin: round; stroke: hsl(225, 10%, 15%); stroke-width: 1.5px; stroke-dasharray: 10000,1;"/></marker></defs><path style="fill: none; stroke-linecap: round; stroke-linejoin: round; stroke: hsl(225, 10%, 15%); stroke-width: 2px; marker-end: url(#marker-4citca001nrnr7q5dqlpcspzd); stroke-dasharray: 0, 5;" data-corner-radius="5" d="M808,130L945,130C947.5,130,950,132.5,950,135L950,400"/></g><rect x="803" y="125" rx="4" width="152" height="280" style="fill: none;" class="djs-outline"/><path d="M808,130L950,130L950,400" style="fill: none; stroke-opacity: 0; stroke: white; stroke-width: 15px;" class="djs-hit djs-hit-stroke"/></g></g><g class="djs-group"><g class="djs-element djs-connection" data-element-id="DataInputAssociation_0ue17jx" style="display: block;"><g class="djs-visual"><defs><marker id="marker-2v88bbtuv7v1ymd1vaz67z7ql" viewBox="0 0 20 20" refX="11" refY="10" markerWidth="10" markerHeight="10" orient="auto"><path d="M 1 5 L 11 10 L 1 15" style="fill: none; stroke-linecap: round; stroke-linejoin: round; stroke: hsl(225, 10%, 15%); stroke-width: 1.5px; stroke-dasharray: 10000,1;"/></marker></defs><path style="fill: none; stroke-linecap: round; stroke-linejoin: round; stroke: hsl(225, 10%, 15%); stroke-width: 2px; marker-end: url(#marker-2v88bbtuv7v1ymd1vaz67z7ql); stroke-dasharray: 0, 5;" data-corner-radius="5" d="M808,205L915,205C917.5,205,920,207.5,920,210L920,400"/></g><rect x="803" y="200" rx="4" width="122" height="205" style="fill: none;" class="djs-outline"/><path d="M808,205L920,205L920,400" style="fill: none; stroke-opacity: 0; stroke: white; stroke-width: 15px;" class="djs-hit djs-hit-stroke"/></g></g><g class="djs-group"><g class="djs-element djs-connection" data-element-id="DataOutputAssociation_19ib57g" style="display: block;"><g class="djs-visual"><defs><marker id="marker-allfdlaev3e99bcay4mbrosnl" viewBox="0 0 20 20" refX="11" refY="10" markerWidth="10" markerHeight="10" orient="auto"><path d="M 1 5 L 11 10 L 1 15" style="fill: none; stroke-linecap: round; stroke-linejoin: round; stroke: hsl(225, 10%, 15%); stroke-width: 1.5px; stroke-dasharray: 10000,1;"/></marker></defs><path style="fill: none; stroke-linecap: round; stroke-linejoin: round; stroke: hsl(225, 10%, 15%); stroke-width: 2px; marker-end: url(#marker-allfdlaev3e99bcay4mbrosnl); stroke-dasharray: 0, 5;" data-corner-radius="5" d="M950,480L950,560C950,562.5,952.3408229439226,564.122191396029,954.6816458878452,563.244382792058L982,553"/></g><rect x="945" y="475" rx="4" width="42" height="95" style="fill: none;" class="djs-outline"/><path d="M950,480L950,565L982,553" style="fill: none; stroke-opacity: 0; stroke: white; stroke-width: 15px;" class="djs-hit djs-hit-stroke"/></g></g><g class="djs-group"><g class="djs-element djs-connection" data-element-id="DataOutputAssociation_0z4kxba" style="display: block;"><g class="djs-visual"><defs><marker id="marker-595ig644kti4hnv2ufa3ajkb2" viewBox="0 0 20 20" refX="11" refY="10" markerWidth="10" markerHeight="10" orient="auto"><path d="M 1 5 L 11 10 L 1 15" style="fill: none; stroke-linecap: round; stroke-linejoin: round; stroke: hsl(225, 10%, 15%); stroke-width: 1.5px; stroke-dasharray: 10000,1;"/></marker></defs><path style="fill: none; stroke-linecap: round; stroke-linejoin: round; stroke: hsl(225, 10%, 15%); stroke-width: 2px; marker-end: url(#marker-595ig644kti4hnv2ufa3ajkb2); stroke-dasharray: 0, 5;" data-corner-radius="5" d="M920,480L920,620C920,622.5,922.5,625,925,625L982,625"/></g><rect x="915" y="475" rx="4" width="72" height="155" style="fill: none;" class="djs-outline"/><path d="M920,480L920,625L982,625" style="fill: none; stroke-opacity: 0; stroke: white; stroke-width: 15px;" class="djs-hit djs-hit-stroke"/></g></g><g class="djs-group"><g class="djs-element djs-connection" data-element-id="DataOutputAssociation_0we3ryk" style="display: block;"><g class="djs-visual"><defs><marker id="marker-cd3bg8yne12peelpwumauksmr" viewBox="0 0 20 20" refX="11" refY="10" markerWidth="10" markerHeight="10" orient="auto"><path d="M 1 5 L 11 10 L 1 15" style="fill: none; stroke-linecap: round; stroke-linejoin: round; stroke: hsl(225, 10%, 15%); stroke-width: 1.5px; stroke-dasharray: 10000,1;"/></marker></defs><path style="fill: none; stroke-linecap: round; stroke-linejoin: round; stroke: hsl(225, 10%, 15%); stroke-width: 2px; marker-end: url(#marker-cd3bg8yne12peelpwumauksmr); stroke-dasharray: 0, 5;" data-corner-radius="5" d="M890,480L890,685C890,687.5,892.5,690,895,690L982,690"/></g><rect x="885" y="475" rx="4" width="102" height="220" style="fill: none;" class="djs-outline"/><path d="M890,480L890,690L982,690" style="fill: none; stroke-opacity: 0; stroke: white; stroke-width: 15px;" class="djs-hit djs-hit-stroke"/></g></g><g class="djs-group"><g class="djs-element djs-connection" data-element-id="Flow_0lnl4st" style="display: block;"><g class="djs-visual"><defs><marker id="marker-cbudatw1v5opb02xsnq5acre7" viewBox="0 0 20 20" refX="11" refY="10" markerWidth="10" markerHeight="10" orient="auto"><path d="M 1 5 L 11 10 L 1 15 Z" style="stroke-linecap: round; stroke-linejoin: round; stroke: hsl(225, 10%, 15%); stroke-width: 1px; fill: hsl(225, 10%, 15%);"/></marker></defs><path style="fill: none; stroke-linecap: round; stroke-linejoin: round; stroke: hsl(225, 10%, 15%); stroke-width: 2px; marker-end: url(#marker-cbudatw1v5opb02xsnq5acre7);" data-corner-radius="5" d="M192,440L350,440"/></g><rect x="187" y="435" rx="4" width="168" height="10" style="fill: none;" class="djs-outline"/><path d="M192,440L350,440" style="fill: none; stroke-opacity: 0; stroke: white; stroke-width: 15px;" class="djs-hit djs-hit-stroke"/></g></g><g class="djs-group"><g class="djs-element djs-connection" data-element-id="Flow_00qfs9r" style="display: block;"><g class="djs-visual"><defs><marker id="marker-734ekagt4xpjf8lordxa9qg6f" viewBox="0 0 20 20" refX="11" refY="10" markerWidth="10" markerHeight="10" orient="auto"><path d="M 1 5 L 11 10 L 1 15 Z" style="stroke-linecap: round; stroke-linejoin: round; stroke: hsl(225, 10%, 15%); stroke-width: 1px; fill: hsl(225, 10%, 15%);"/></marker></defs><path style="fill: none; stroke-linecap: round; stroke-linejoin: round; stroke: hsl(225, 10%, 15%); stroke-width: 2px; marker-end: url(#marker-734ekagt4xpjf8lordxa9qg6f);" data-corner-radius="5" d="M690,440L870,440"/></g><rect x="685" y="435" rx="4" width="190" height="10" style="fill: none;" class="djs-outline"/><path d="M690,440L870,440" style="fill: none; stroke-opacity: 0; stroke: white; stroke-width: 15px;" class="djs-hit djs-hit-stroke"/></g></g><g class="djs-group"><g class="djs-element djs-connection" data-element-id="Flow_15i8g69" style="display: block;"><g class="djs-visual"><defs><marker id="marker-9ihmlb7v5zjqz3k21mw9t6n9m" viewBox="0 0 20 20" refX="11" refY="10" markerWidth="10" markerHeight="10" orient="auto"><path d="M 1 5 L 11 10 L 1 15 Z" style="stroke-linecap: round; stroke-linejoin: round; stroke: hsl(225, 10%, 15%); stroke-width: 1px; fill: hsl(225, 10%, 15%);"/></marker></defs><path style="fill: none; stroke-linecap: round; stroke-linejoin: round; stroke: hsl(225, 10%, 15%); stroke-width: 2px; marker-end: url(#marker-9ihmlb7v5zjqz3k21mw9t6n9m);" data-corner-radius="5" d="M970,440L1152,440"/></g><rect x="965" y="435" rx="4" width="192" height="10" style="fill: none;" class="djs-outline"/><path d="M970,440L1152,440" style="fill: none; stroke-opacity: 0; stroke: white; stroke-width: 15px;" class="djs-hit djs-hit-stroke"/></g></g><g class="djs-group"><g class="djs-element djs-connection" data-element-id="Association_09g6qsm" style="display: block;"><g class="djs-visual"><path style="fill: none; stroke-linecap: round; stroke-linejoin: round; stroke: hsl(225, 10%, 15%); stroke-width: 2px; stroke-dasharray: 0, 5;" data-corner-radius="5" d="M288,228L314,210"/></g><rect x="283" y="205" rx="4" width="36" height="28" style="fill: none;" class="djs-outline"/><path d="M288,228L314,210" style="fill: none; stroke-opacity: 0; stroke: white; stroke-width: 15px;" class="djs-hit djs-hit-stroke"/></g></g><g class="djs-group"><g class="djs-element djs-connection" data-element-id="Association_1btcijn" style="display: block;"><g class="djs-visual"><path style="fill: none; stroke-linecap: round; stroke-linejoin: round; stroke: hsl(225, 10%, 15%); stroke-width: 2px; stroke-dasharray: 0, 5;" data-corner-radius="5" d="M626,233L661,220"/></g><rect x="621" y="215" rx="4" width="45" height="23" style="fill: none;" class="djs-outline"/><path d="M626,233L661,220" style="fill: none; stroke-opacity: 0; stroke: white; stroke-width: 15px;" class="djs-hit djs-hit-stroke"/></g></g><g class="djs-group"><g class="djs-element djs-connection" data-element-id="Association_1oi03aq" style="display: block;"><g class="djs-visual"><path style="fill: none; stroke-linecap: round; stroke-linejoin: round; stroke: hsl(225, 10%, 15%); stroke-width: 2px; stroke-dasharray: 0, 5;" data-corner-radius="5" d="M678,300L713,280"/></g><rect x="673" y="275" rx="4" width="45" height="30" style="fill: none;" class="djs-outline"/><path d="M678,300L713,280" style="fill: none; stroke-opacity: 0; stroke: white; stroke-width: 15px;" class="djs-hit djs-hit-stroke"/></g></g><g class="djs-group"><g class="djs-element djs-connection" data-element-id="Association_1jj8gno" style="display: block;"><g class="djs-visual"><path style="fill: none; stroke-linecap: round; stroke-linejoin: round; stroke: hsl(225, 10%, 15%); stroke-width: 2px; stroke-dasharray: 0, 5;" data-corner-radius="5" d="M808,123L841,110"/></g><rect x="803" y="105" rx="4" width="43" height="23" style="fill: none;" class="djs-outline"/><path d="M808,123L841,110" style="fill: none; stroke-opacity: 0; stroke: white; stroke-width: 15px;" class="djs-hit djs-hit-stroke"/></g></g><g class="djs-group"><g class="djs-element djs-connection" data-element-id="Association_190lr29" style="display: block;"><g class="djs-visual"><path style="fill: none; stroke-linecap: round; stroke-linejoin: round; stroke: hsl(225, 10%, 15%); stroke-width: 2px; stroke-dasharray: 0, 5;" data-corner-radius="5" d="M1018,528L1058,500"/></g><rect x="1013" y="495" rx="4" width="50" height="38" style="fill: none;" class="djs-outline"/><path d="M1018,528L1058,500" style="fill: none; stroke-opacity: 0; stroke: white; stroke-width: 15px;" class="djs-hit djs-hit-stroke"/></g></g><g class="djs-group"><g class="djs-element djs-connection" data-element-id="Association_0d4x3n4" style="display: block;"><g class="djs-visual"><path style="fill: none; stroke-linecap: round; stroke-linejoin: round; stroke: hsl(225, 10%, 15%); stroke-width: 2px; stroke-dasharray: 0, 5;" data-corner-radius="5" d="M1018,610L1053,590"/></g><rect x="1013" y="585" rx="4" width="45" height="30" style="fill: none;" class="djs-outline"/><path d="M1018,610L1053,590" style="fill: none; stroke-opacity: 0; stroke: white; stroke-width: 15px;" class="djs-hit djs-hit-stroke"/></g></g><g class="djs-group"><g class="djs-element djs-connection" data-element-id="Association_1j5oycs" style="display: block;"><g class="djs-visual"><path style="fill: none; stroke-linecap: round; stroke-linejoin: round; stroke: hsl(225, 10%, 15%); stroke-width: 2px; stroke-dasharray: 0, 5;" data-corner-radius="5" d="M1018,680L1053,660"/></g><rect x="1013" y="655" rx="4" width="45" height="30" style="fill: none;" class="djs-outline"/><path d="M1018,680L1053,660" style="fill: none; stroke-opacity: 0; stroke: white; stroke-width: 15px;" class="djs-hit djs-hit-stroke"/></g></g><g class="djs-group"><g class="djs-element djs-connection" data-element-id="Association_1ekzymy" style="display: block;"><g class="djs-visual"><path style="fill: none; stroke-linecap: round; stroke-linejoin: round; stroke: hsl(225, 10%, 15%); stroke-width: 2px; stroke-dasharray: 0, 5;" data-corner-radius="5" d="M808,197L846,180"/></g><rect x="803" y="175" rx="4" width="48" height="27" style="fill: none;" class="djs-outline"/><path d="M808,197L846,180" style="fill: none; stroke-opacity: 0; stroke: white; stroke-width: 15px;" class="djs-hit djs-hit-stroke"/></g></g></svg>