<svg width="320" height="80" viewBox="0 0 320 80" fill="none" xmlns="http://www.w3.org/2000/svg">
<path d="M62.6999 57.9348C62.6999 62.9363 62.9509 67.0597 63.015 67.9724C63.0773 69.445 63.4556 70.1519 64.5885 70.1519H65.4064C65.6574 70.1519 65.6574 70.2683 65.6574 70.4164V71.0897C65.6574 71.2667 65.6574 71.3254 65.4064 71.3254C65.0913 71.3254 63.2028 71.2378 62.0104 71.2378C61.1925 71.2378 59.0529 71.3254 58.7388 71.3254C58.6133 71.3254 58.5501 71.2667 58.5501 71.0609V70.3231C58.5544 70.2752 58.5761 70.2306 58.6111 70.1982C58.646 70.1658 58.6916 70.1479 58.7388 70.1481H59.8095C60.6274 70.1481 61.0679 69.4998 61.2245 67.7041C61.2547 67.1751 61.4443 63.0536 61.4443 58.3436V54.6078C61.4443 52.8429 60.3736 51.4867 58.9916 51.4867H57.9794C57.8539 51.4579 57.7907 51.3992 57.7907 51.2818V50.4864C57.7907 50.37 57.853 50.3094 57.9794 50.3094C58.1369 50.3094 58.3898 50.3402 58.9548 50.37C59.5199 50.3998 60.3699 50.3989 61.7547 50.3989C62.2896 50.3989 62.7622 50.37 63.1405 50.3402C63.5508 50.3402 63.8329 50.3094 64.0216 50.3094C64.1585 50.297 64.2965 50.3142 64.4265 50.3597C64.5566 50.4053 64.6757 50.4783 64.7763 50.5739C65.0913 50.8692 71.258 58.1108 71.8873 58.9341C72.3278 59.4054 77.2351 65.1168 77.7361 65.7044H77.8615V62.6458C77.8615 60.0547 77.8615 58.5831 77.7992 57.1105C77.737 55.9919 77.6106 53.1064 77.454 52.6063C77.3291 52.263 77.0999 51.9694 76.7999 51.7682C76.4999 51.567 76.1447 51.4687 75.7861 51.4877H74.7843C74.5956 51.4877 74.5956 51.3713 74.5956 51.2232V50.5499C74.5956 50.3748 74.5956 50.3142 74.8484 50.3142C75.2258 50.3142 76.2342 50.4037 78.3728 50.4037C80.2595 50.4037 81.0142 50.3142 81.3915 50.3142C81.6444 50.3142 81.7066 50.4325 81.7066 50.5201V51.1933C81.7066 51.3703 81.6444 51.4867 81.518 51.4867H80.6331C80.0048 51.4867 79.6897 51.959 79.5954 53.0468C79.4397 55.0484 79.1237 59.9941 79.1237 62.9969V70.7675C79.1237 71.1801 79.1237 71.5928 78.7464 71.5928C78.3447 71.5756 77.9634 71.4077 77.6757 71.1215C77.4247 70.8281 75.7248 69.0054 73.774 66.824C71.5722 64.2925 69.1185 61.5263 68.7402 61.053C68.2997 60.6404 63.2688 54.7531 62.8914 54.3404H62.7028L62.6999 57.9348Z" fill="white"/>
<path d="M90.4166 69.798C89.654 70.5586 88.7117 71.1056 87.6809 71.386C87.0225 71.5518 86.3444 71.6211 85.6668 71.5918C85.356 71.5871 85.0496 71.5157 84.7675 71.3825C84.4854 71.2493 84.2339 71.0571 84.0293 70.8184C83.8248 70.5797 83.6717 70.2999 83.58 69.997C83.4883 69.6941 83.4601 69.375 83.4971 69.0603C83.4971 67.706 84.1273 66.3825 86.3932 65.4399C87.7081 64.9121 88.9898 64.3018 90.2308 63.6125V62.0832C90.2445 61.4921 90.0679 60.9127 89.728 60.4336C89.277 60.0891 88.7148 59.9313 88.1544 59.9922C87.5096 59.9938 86.8777 60.1776 86.329 60.5231C85.8885 60.8164 86.2036 61.2589 86.2036 61.9658C86.2036 63.0238 85.6376 63.674 84.3169 63.674C84.1807 63.686 84.0436 63.669 83.9142 63.6241C83.7848 63.5792 83.666 63.5073 83.5653 63.4131C83.4646 63.3188 83.3842 63.2042 83.3293 63.0766C83.2744 62.949 83.2461 62.8112 83.2462 62.6718C83.2796 62.1809 83.4285 61.7054 83.6802 61.2855C83.9319 60.8657 84.2791 60.5137 84.6923 60.2595C86.1806 59.1825 87.9614 58.6059 89.7864 58.61C91.5477 58.61 92.1156 58.964 92.6806 59.4353C92.9663 59.7189 93.1833 60.0665 93.3143 60.4505C93.4453 60.8345 93.4867 61.2443 93.4353 61.6475L93.4976 66.2979V67.7108C93.4976 69.3007 93.7504 69.7711 94.3155 69.7711C94.5077 69.7769 94.6986 69.7374 94.8733 69.6556C95.0481 69.5739 95.202 69.4521 95.323 69.2998C95.4484 69.1228 95.5116 69.1228 95.6381 69.1834L96.0154 69.419C96.1428 69.4777 96.2041 69.596 96.0795 69.8903C95.8004 70.4207 95.3816 70.8611 94.8702 71.1621C94.3589 71.463 93.7754 71.6125 93.1853 71.5937C92.6122 71.6364 92.0414 71.4832 91.5631 71.1584C91.0848 70.8336 90.7262 70.3556 90.544 69.7999L90.4166 69.798ZM90.2279 64.7003C88.844 65.5256 86.7658 66.0257 86.7658 68.1735C86.7658 69.3815 87.4582 69.9692 88.2139 69.9692C89.095 69.9105 90.2279 69.0862 90.2279 68.5563V64.7003Z" fill="white"/>
<path d="M96.3607 60.5837C96.1078 60.5837 95.9201 60.4673 95.9201 60.1711C95.9201 59.9354 96.1088 59.7604 96.5182 59.6122C98.2055 58.7146 99.6773 57.4478 100.828 55.9025C100.875 55.8084 100.948 55.7304 101.037 55.6782C101.127 55.626 101.23 55.602 101.333 55.6091C101.386 55.6065 101.438 55.6156 101.487 55.6358C101.536 55.656 101.58 55.6868 101.616 55.7261C101.652 55.7654 101.679 55.8122 101.695 55.8633C101.711 55.9143 101.717 55.9684 101.71 56.0217L101.585 58.9361H105.736C105.924 58.9361 105.989 59.0524 105.957 59.1717L105.647 60.4067C105.615 60.525 105.52 60.5837 105.332 60.5837H101.521C101.459 61.8206 101.426 63.2335 101.426 64.5272V67.1751C101.426 69.471 102.464 69.9413 103.094 69.9413C103.719 69.9488 104.339 69.8291 104.918 69.5893C105.138 69.4998 105.233 69.4998 105.295 69.6479L105.484 70C105.512 70.0731 105.514 70.1537 105.492 70.2286C105.469 70.3035 105.422 70.3684 105.358 70.4126C104.186 71.2077 102.804 71.6191 101.396 71.5918C99.5096 71.5918 98.0945 70.1779 98.0945 68.942C98.0945 67.8839 98.1889 65.5275 98.1889 64.4089V60.5837H96.3607Z" fill="white"/>
<path d="M108.919 62.8507C108.919 61.9677 108.73 61.3781 107.281 61.0232C106.998 60.9646 106.968 60.8751 106.968 60.7587V60.4336C106.968 60.3172 107.03 60.2586 107.188 60.198C107.628 60.021 110.742 58.9918 111.278 58.7851C111.518 58.6833 111.773 58.6234 112.033 58.6081C112.221 58.6081 112.316 58.7264 112.284 58.962C112.221 59.4333 112.221 61.3166 112.221 63.7596V66.9385C112.199 67.7828 112.22 68.6278 112.284 69.47C112.348 69.999 112.472 70.2395 112.788 70.2395H114.047C114.298 70.2395 114.362 70.2981 114.362 70.4443V71.0339C114.362 71.2109 114.298 71.3273 114.109 71.3273C113.856 71.3273 112.411 71.2398 110.302 71.2398C108.476 71.2398 107.283 71.3273 106.905 71.3273C106.748 71.3273 106.653 71.2686 106.653 71.0339V70.4732C106.653 70.2981 106.778 70.2395 106.968 70.2395H108.352C108.667 70.2395 108.823 70.1212 108.856 69.6499C108.887 68.7669 108.919 67.8224 108.919 67V62.8507ZM109.987 55.5802C109.519 55.6197 109.054 55.4686 108.695 55.1599C108.335 54.8512 108.11 54.41 108.069 53.9326C108.069 53.0785 108.918 52.2831 110.177 52.2831C110.398 52.2563 110.622 52.2749 110.836 52.3379C111.05 52.4008 111.249 52.5067 111.422 52.6494C111.595 52.7921 111.738 52.9687 111.843 53.1688C111.948 53.3689 112.013 53.5884 112.034 53.8143C112.025 54.0717 111.964 54.3244 111.854 54.5562C111.744 54.788 111.587 54.9937 111.395 55.1602C111.202 55.3266 110.977 55.45 110.735 55.5226C110.492 55.5951 110.238 55.6141 109.987 55.5802Z" fill="white"/>
<path d="M126.929 60.348C127.601 60.9156 128.143 61.6258 128.518 62.429C128.892 63.2322 129.091 64.1091 129.099 64.9985C129.05 66.6942 128.35 68.3027 127.15 69.4777C126.453 70.1728 125.626 70.7182 124.719 71.0817C123.811 71.4452 122.842 71.6193 121.867 71.5937C120.917 71.6491 119.967 71.4879 119.086 71.1219C118.205 70.7559 117.414 70.1942 116.773 69.4777C116.186 68.8856 115.73 68.1717 115.437 67.3845C115.144 66.5972 115.021 65.755 115.075 64.9148C115.124 63.9495 115.387 63.0081 115.844 62.1615C116.302 61.315 116.942 60.5854 117.716 60.0277C119.008 59.0645 120.577 58.5655 122.177 58.609C123.919 58.5639 125.614 59.1834 126.93 60.3461M125.262 64.909C125.262 61.6715 123.439 59.7863 121.991 59.7863C121.624 59.7669 121.257 59.8278 120.916 59.965C120.574 60.1022 120.265 60.3125 120.01 60.5817C119.032 61.6109 118.657 62.8488 118.657 64.9965C118.519 66.4346 118.862 67.8779 119.628 69.093C119.891 69.5142 120.262 69.8547 120.7 70.0778C121.138 70.301 121.627 70.3984 122.115 70.3597C124.191 70.3597 125.262 67.9157 125.262 64.9138" fill="white"/>
<path d="M134.163 58.8485C134.355 58.7283 134.57 58.6482 134.793 58.6129C134.982 58.6129 135.106 58.7293 135.17 58.9649L135.423 60.4961H135.612C136.7 59.3758 138.156 58.7042 139.7 58.61C140.673 58.5443 141.641 58.7912 142.469 59.316C143.011 59.6004 143.462 60.0369 143.769 60.5741C144.075 61.1112 144.225 61.7266 144.2 62.3477V66.5932C144.2 67.5348 144.168 68.8304 144.168 69.4181C144.168 70.0663 144.545 70.2433 144.923 70.2433H145.804C146.087 70.2433 146.181 70.302 146.181 70.4491V71.1224C146.181 71.2705 146.119 71.3283 145.928 71.3283C145.677 71.3283 144.733 71.2388 142.532 71.2388C140.645 71.2388 139.638 71.3283 139.448 71.3283C139.259 71.3283 139.195 71.2099 139.195 70.9743V70.4742C139.195 70.2972 139.258 70.2385 139.573 70.2385H140.201C140.454 70.2385 140.704 70.0615 140.767 69.5325C140.867 68.6141 140.91 67.6902 140.894 66.7663V63.3807C140.894 62.2034 140.832 61.4368 140.077 60.8491C139.541 60.4245 138.863 60.2335 138.19 60.3182C137.449 60.3177 136.734 60.5911 136.176 61.0877C135.935 61.3739 135.753 61.7061 135.639 62.0649C135.526 62.4238 135.484 62.8021 135.515 63.1777V69.2421C135.515 69.8884 135.673 70.2423 136.114 70.2423H136.68C136.932 70.2423 136.995 70.301 136.995 70.5069V71.0378C136.995 71.2128 136.932 71.3311 136.742 71.3311C136.551 71.3311 135.673 71.2417 133.784 71.2417C131.834 71.2417 130.827 71.3311 130.637 71.3311C130.512 71.3311 130.449 71.2128 130.449 71.0378V70.478C130.449 70.301 130.511 70.2423 130.762 70.2423H131.392C131.769 70.2423 132.21 70.126 132.21 69.6547V63.0277C132.21 62.1466 131.644 61.6734 130.889 61.3214L130.636 61.2031C130.568 61.1917 130.505 61.1561 130.459 61.1026C130.413 61.049 130.387 60.9808 130.386 60.9097V60.6741C130.386 60.5558 130.511 60.4384 130.699 60.3807L134.163 58.8485Z" fill="white"/>
<path d="M154.68 69.798C153.917 70.5586 152.975 71.1056 151.944 71.386C151.286 71.5518 150.607 71.6211 149.93 71.5918C149.619 71.5871 149.313 71.5157 149.031 71.3825C148.748 71.2493 148.497 71.0571 148.292 70.8184C148.088 70.5797 147.935 70.2999 147.843 69.997C147.751 69.6941 147.723 69.375 147.76 69.0603C147.76 67.706 148.39 66.3825 150.656 65.4399C151.971 64.9117 153.253 64.3014 154.494 63.6125V62.0832C154.506 61.4926 154.328 60.9143 153.987 60.4365C153.536 60.0922 152.974 59.9345 152.414 59.995C151.769 59.9963 151.138 60.1801 150.59 60.526C150.148 60.8193 150.463 61.2618 150.463 61.9687C150.463 63.0267 149.897 63.6769 148.576 63.6769C148.44 63.6889 148.303 63.6719 148.173 63.627C148.044 63.5821 147.925 63.5102 147.825 63.4159C147.724 63.3217 147.644 63.2071 147.589 63.0795C147.534 62.9519 147.505 62.814 147.505 62.6747C147.539 62.1838 147.688 61.7083 147.94 61.2884C148.191 60.8685 148.538 60.5166 148.952 60.2624C150.44 59.1854 152.221 58.6088 154.046 58.6129C155.807 58.6129 156.375 58.9668 156.94 59.4381C157.226 59.7218 157.443 60.0694 157.574 60.4534C157.705 60.8373 157.746 61.2472 157.695 61.6503L157.757 66.3008V67.7137C157.757 69.3036 158.01 69.7739 158.575 69.7739C158.767 69.7799 158.958 69.7404 159.133 69.6587C159.307 69.5769 159.461 69.4551 159.582 69.3026C159.708 69.1257 159.771 69.1257 159.897 69.1863L160.275 69.4219C160.402 69.4806 160.463 69.5989 160.339 69.8932C160.06 70.4243 159.641 70.8655 159.129 71.167C158.618 71.4684 158.033 71.6182 157.443 71.5995C156.87 71.6423 156.299 71.4892 155.82 71.1644C155.342 70.8395 154.984 70.3615 154.801 69.8057L154.68 69.798ZM154.491 64.7003C153.105 65.5256 151.029 66.0257 151.029 68.1735C151.029 69.3815 151.721 69.9692 152.477 69.9692C153.358 69.9105 154.491 69.0862 154.491 68.5563V64.7003Z" fill="white"/>
<path d="M163.609 59.9643C163.609 57.904 163.546 55.3725 163.483 54.6078C163.419 53.6056 162.885 53.1353 161.879 52.841L161.251 52.664C161.062 52.6034 161.062 52.5457 161.062 52.4283V52.0744C161.062 52.0157 161.125 51.8993 161.315 51.8387C162.935 51.4162 164.513 50.8451 166.032 50.1325C166.255 50.0462 166.488 49.9868 166.724 49.9555C166.913 49.9555 167.04 50.0719 167.04 50.4845C166.977 52.0744 166.914 58.1964 166.914 59.8142V64.054C166.914 65.4082 166.914 68.4101 166.976 69.293C167.039 69.822 167.102 70.2347 167.794 70.2347H168.989C169.304 70.2347 169.367 70.2953 169.367 70.4992V71.0301C169.367 71.2071 169.304 71.3234 169.178 71.3234C168.927 71.3234 167.542 71.2359 165.341 71.2359C162.949 71.2359 161.691 71.3234 161.439 71.3234C161.25 71.3234 161.188 71.2071 161.188 71.0301V70.4693C161.188 70.2943 161.25 70.2337 161.628 70.2337H162.823C163.138 70.2337 163.61 69.9981 163.61 69.1757V59.9614L163.609 59.9643Z" fill="white"/>
<path d="M196.174 65.1745C196.236 65.2331 196.236 65.2909 196.236 65.4678C196.111 65.6448 194.852 70.5319 194.663 71.3263C193.845 71.2975 184.784 71.2388 181.575 71.2388C178.745 71.2388 177.613 71.3263 177.235 71.3263C176.982 71.3263 176.982 71.2677 176.982 71.0618V70.3885C176.982 70.2116 176.982 70.1529 177.171 70.1529H178.43C179.562 70.1529 179.75 69.7403 179.75 69.3575C179.75 68.8285 179.876 61.4705 179.876 59.7036V58.0493C179.876 56.1641 179.813 53.0477 179.75 52.5438C179.688 51.7743 179.562 51.4857 178.745 51.4857H177.424C177.356 51.4842 177.292 51.4553 177.244 51.4054C177.197 51.3555 177.172 51.2885 177.173 51.2193V50.546C177.173 50.3691 177.235 50.3104 177.424 50.3104C177.739 50.3104 178.872 50.3979 181.763 50.3979C185.159 50.3979 186.48 50.3104 186.734 50.3104C186.988 50.3104 187.049 50.4268 187.049 50.5749V51.2482C187.049 51.3646 186.987 51.4838 186.734 51.4838H185.036C184.092 51.4838 183.965 51.7772 183.965 52.5716C183.965 52.9843 183.84 57.401 183.84 59.4612V61.9928C183.84 62.5218 183.84 68.8804 183.965 70.1471H185.728C187.49 70.1471 189.755 70.1471 191.011 69.999C192.772 69.7634 194.784 66.2325 195.228 65.1139C195.353 64.9956 195.417 64.9369 195.605 64.9956L196.174 65.1745Z" fill="white"/>
<path d="M205.129 69.798C204.367 70.5586 203.424 71.1056 202.394 71.386C201.735 71.5518 201.057 71.6211 200.379 71.5918C200.069 71.587 199.762 71.5157 199.48 71.3825C199.198 71.2493 198.947 71.0571 198.742 70.8184C198.537 70.5797 198.384 70.2999 198.293 69.997C198.201 69.6941 198.173 69.375 198.21 69.0603C198.21 67.706 198.84 66.3825 201.106 65.4399C202.42 64.9114 203.701 64.3004 204.941 63.6105V62.0812C204.954 61.4901 204.778 60.9107 204.438 60.4317C203.987 60.0871 203.425 59.9294 202.864 59.9902C202.219 59.9919 201.588 60.1756 201.039 60.5212C200.598 60.8145 200.913 61.257 200.913 61.9639C200.913 63.0219 200.347 63.6721 199.027 63.6721C198.891 63.6841 198.753 63.6671 198.624 63.6222C198.495 63.5773 198.376 63.5054 198.275 63.4111C198.174 63.3169 198.094 63.2023 198.039 63.0747C197.984 62.9471 197.956 62.8092 197.956 62.6699C197.989 62.179 198.138 61.7035 198.39 61.2836C198.642 60.8637 198.989 60.5118 199.402 60.2576C200.89 59.1806 202.671 58.6039 204.496 58.6081C206.258 58.6081 206.825 58.962 207.39 59.4333C207.676 59.717 207.893 60.0646 208.024 60.4485C208.155 60.8325 208.197 61.2424 208.145 61.6455L208.207 66.296V67.7089C208.207 69.2988 208.46 69.7691 209.025 69.7691C209.217 69.7749 209.408 69.7353 209.583 69.6536C209.758 69.5718 209.912 69.4501 210.033 69.2978C210.158 69.1209 210.221 69.1209 210.348 69.1814L210.725 69.4171C210.853 69.4758 210.914 69.5941 210.789 69.8884C210.511 70.4193 210.092 70.8603 209.581 71.1618C209.069 71.4632 208.486 71.6132 207.895 71.5947C207.322 71.6373 206.751 71.4842 206.273 71.1593C205.795 70.8345 205.436 70.3566 205.254 69.8009L205.129 69.798ZM204.941 64.7003C203.557 65.5255 201.479 66.0257 201.479 68.1735C201.479 69.3815 202.171 69.9692 202.927 69.9692C203.809 69.9153 204.941 69.093 204.941 68.5611V64.7003Z" fill="white"/>
<path d="M213.521 71.5043C213.395 71.5719 213.253 71.6022 213.111 71.5918L212.67 71.4754C212.545 71.4148 212.545 71.3571 212.545 71.2398C212.607 70.8271 212.639 68.3543 212.639 66.2383L212.575 55.4946C212.575 53.4931 212.23 53.1382 211.222 52.8448L210.845 52.7265C210.468 52.6678 210.403 52.6101 210.403 52.4909V52.1975C210.403 52.1388 210.465 52.0205 210.718 51.9618C211.976 51.5492 213.801 50.7846 214.808 50.3142C215.091 50.1226 215.414 50.0014 215.751 49.9603C216.004 49.9603 216.129 50.1373 216.066 50.4316C216.066 50.6672 215.939 54.023 215.909 56.5873L215.877 60.1201C217.094 59.1158 218.621 58.5835 220.187 58.6177C221.092 58.6199 221.983 58.846 222.783 59.2767C223.584 59.7075 224.27 60.3299 224.782 61.0906C225.443 62.1952 225.76 63.4776 225.693 64.7695C225.578 66.5813 224.806 68.2844 223.526 69.547C222.247 70.8095 220.552 71.5409 218.772 71.5985C217.391 71.6451 216.016 71.3824 214.745 70.8291L213.521 71.5043ZM215.88 64.8811C215.88 67.354 215.942 68.2956 216.32 69.1786C216.561 69.5874 216.903 69.9247 217.312 70.1569C217.72 70.3891 218.182 70.5081 218.649 70.502C219.213 70.5261 219.774 70.4005 220.276 70.1375C220.778 69.8745 221.204 69.4831 221.513 69.0016C222.117 68.0163 222.403 66.863 222.331 65.7035C222.331 62.289 220.822 60.3759 218.334 60.3759C217.441 60.3693 216.573 60.6817 215.882 61.2589L215.88 64.8811Z" fill="white"/>
<path d="M239.334 60.348C240.006 60.9156 240.548 61.6258 240.923 62.429C241.298 63.2322 241.496 64.1091 241.504 64.9985C241.455 66.6944 240.755 68.3028 239.554 69.4777C238.857 70.1728 238.031 70.7183 237.123 71.0817C236.216 71.4452 235.246 71.6193 234.271 71.5937C233.321 71.6491 232.371 71.4879 231.49 71.1219C230.609 70.7559 229.819 70.1942 229.177 69.4777C228.59 68.8855 228.135 68.1717 227.842 67.3844C227.549 66.5972 227.425 65.755 227.479 64.9148C227.528 63.9495 227.791 63.0082 228.249 62.1617C228.706 61.3152 229.346 60.5855 230.121 60.0277C231.415 59.0651 232.987 58.5681 234.588 58.6148C236.329 58.5697 238.024 59.1892 239.341 60.3519M237.673 64.9148C237.673 61.6773 235.85 59.7921 234.402 59.7921C234.035 59.7726 233.668 59.8336 233.326 59.9708C232.985 60.108 232.676 60.3183 232.42 60.5875C231.443 61.6167 231.068 62.8546 231.068 65.0023C230.932 66.439 231.275 67.8804 232.041 69.0939C232.304 69.5151 232.674 69.8554 233.112 70.0785C233.55 70.3017 234.039 70.3992 234.527 70.3607C236.602 70.3607 237.673 67.9166 237.673 64.9148Z" fill="white"/>
<path d="M244.721 63.675C244.721 62.3207 244.468 61.8475 243.526 61.3791L242.96 61.0838C242.771 61.0252 242.707 60.9674 242.707 60.8501V60.6731C242.707 60.5548 242.769 60.4962 242.96 60.4086L246.767 58.7293C246.927 58.6628 247.097 58.6235 247.27 58.6129C247.458 58.6129 247.523 58.7899 247.553 58.9649L247.836 61.0809H247.961C249.032 59.4333 250.355 58.433 251.735 58.433C251.939 58.4104 252.146 58.4315 252.342 58.4949C252.538 58.5583 252.719 58.6626 252.873 58.8012C253.028 58.9398 253.152 59.1097 253.238 59.3C253.325 59.4903 253.371 59.6969 253.375 59.9065C253.328 60.3357 253.13 60.7329 252.818 61.025C252.506 61.3172 252.101 61.4846 251.677 61.4964C251.308 61.4962 250.943 61.4158 250.606 61.2608C250.343 61.093 250.036 61.0109 249.725 61.0252C249.453 61.0454 249.19 61.1339 248.96 61.283C248.729 61.432 248.539 61.6368 248.405 61.8793C248.166 62.322 248.037 62.8171 248.027 63.322V69.0035C248.027 69.9451 248.278 70.2404 248.908 70.2404H250.292C250.481 70.2404 250.545 70.2991 250.545 70.4463V71.1195C250.545 71.2657 250.483 71.3254 250.325 71.3254C250.105 71.3254 248.722 71.2359 246.424 71.2359C244.222 71.2359 242.995 71.3254 242.745 71.3254C242.587 71.3254 242.523 71.2648 242.523 71.1195V70.4713C242.523 70.2943 242.587 70.2356 242.806 70.2356H243.907C244.41 70.2356 244.725 70 244.725 69.4402L244.721 63.675Z" fill="white"/>
<path d="M261.332 69.798C260.57 70.5586 259.627 71.1056 258.597 71.386C257.938 71.5518 257.26 71.6211 256.583 71.5918C256.272 71.5871 255.965 71.5157 255.683 71.3825C255.401 71.2493 255.15 71.0571 254.945 70.8184C254.74 70.5797 254.587 70.2999 254.496 69.997C254.404 69.6941 254.376 69.375 254.413 69.0603C254.413 67.706 255.043 66.3825 257.309 65.4399C258.624 64.9117 259.905 64.3014 261.146 63.6125V62.0832C261.16 61.4921 260.984 60.9127 260.644 60.4336C260.193 60.0893 259.63 59.9316 259.07 59.9922C258.426 59.9934 257.794 60.1772 257.247 60.5231C256.804 60.8164 257.119 61.2589 257.119 61.9658C257.119 63.0238 256.553 63.674 255.233 63.674C255.097 63.6857 254.96 63.6685 254.83 63.6235C254.701 63.5784 254.583 63.5065 254.482 63.4123C254.382 63.3181 254.302 63.2036 254.247 63.0761C254.192 62.9487 254.164 62.811 254.164 62.6718C254.197 62.1809 254.346 61.7054 254.598 61.2855C254.85 60.8657 255.197 60.5137 255.61 60.2595C257.098 59.1825 258.879 58.6059 260.704 58.61C262.465 58.61 263.033 58.964 263.598 59.4353C263.884 59.7189 264.101 60.0665 264.232 60.4505C264.363 60.8345 264.404 61.2443 264.353 61.6475L264.415 66.2979V67.7108C264.415 69.3007 264.668 69.7711 265.233 69.7711C265.425 69.777 265.616 69.7376 265.791 69.6558C265.966 69.5741 266.12 69.4522 266.241 69.2998C266.366 69.1228 266.429 69.1228 266.556 69.1834L266.933 69.419C267.06 69.4777 267.122 69.596 266.997 69.8903C266.718 70.4215 266.299 70.8626 265.787 71.1641C265.276 71.4655 264.692 71.6153 264.101 71.5966C263.528 71.6394 262.957 71.4863 262.479 71.1615C262 70.8366 261.642 70.3586 261.46 69.8028L261.332 69.798ZM261.144 64.7003C259.758 65.5256 257.682 66.0257 257.682 68.1735C257.682 69.3815 258.374 69.9692 259.13 69.9692C260.011 69.9105 261.144 69.0862 261.144 68.5563V64.7003Z" fill="white"/>
<path d="M267.27 60.5837C267.017 60.5837 266.829 60.4673 266.829 60.1711C266.829 59.9354 267.018 59.7604 267.427 59.6122C269.115 58.7146 270.586 57.4478 271.738 55.9025C271.784 55.8084 271.857 55.7304 271.946 55.6782C272.036 55.626 272.139 55.602 272.242 55.6091C272.295 55.6065 272.347 55.6156 272.396 55.6358C272.445 55.656 272.489 55.6868 272.525 55.7261C272.561 55.7654 272.588 55.8122 272.604 55.8633C272.621 55.9143 272.626 55.9684 272.62 56.0217L272.494 58.9361H276.645C276.833 58.9361 276.898 59.0524 276.867 59.1717L276.551 60.4077C276.519 60.526 276.424 60.5846 276.236 60.5846H272.43C272.368 61.8215 272.336 63.2345 272.336 64.5281V67.176C272.336 69.4719 273.373 69.9423 274.003 69.9423C274.629 69.9499 275.249 69.8302 275.828 69.5902C276.048 69.5008 276.143 69.5008 276.205 69.6489L276.394 70.0009C276.422 70.0741 276.425 70.1546 276.402 70.2296C276.379 70.3045 276.332 70.3693 276.268 70.4136C275.096 71.2087 273.714 71.62 272.306 71.5928C270.42 71.5928 269.005 70.1789 269.005 68.9429C269.005 67.8849 269.099 65.5284 269.099 64.4098V60.5837H267.27Z" fill="white"/>
<path d="M288.881 60.348C289.553 60.9156 290.095 61.6258 290.47 62.429C290.844 63.2322 291.043 64.1091 291.051 64.9985C291.002 66.6944 290.301 68.3028 289.101 69.4777C288.404 70.1728 287.577 70.7183 286.67 71.0817C285.762 71.4452 284.793 71.6193 283.818 71.5937C282.868 71.6491 281.918 71.4879 281.037 71.1219C280.156 70.7559 279.366 70.1942 278.724 69.4777C278.137 68.8855 277.681 68.1716 277.389 67.3844C277.096 66.5972 276.972 65.755 277.026 64.9148C277.075 63.9495 277.338 63.0082 277.796 62.1617C278.253 61.3152 278.893 60.5855 279.667 60.0277C280.959 59.0651 282.527 58.5662 284.126 58.609C285.867 58.5639 287.562 59.1834 288.878 60.3461M287.21 64.909C287.21 61.6715 285.387 59.7863 283.939 59.7863C283.572 59.7669 283.205 59.8278 282.864 59.965C282.522 60.1022 282.213 60.3125 281.958 60.5817C280.98 61.6109 280.605 62.8488 280.605 64.9965C280.468 66.4348 280.811 67.8781 281.579 69.093C281.841 69.5142 282.212 69.8547 282.65 70.0778C283.088 70.301 283.577 70.3984 284.065 70.3597C286.141 70.3597 287.212 67.9157 287.212 64.9138" fill="white"/>
<path d="M294.268 63.675C294.268 62.3207 294.015 61.8475 293.072 61.3791L292.506 61.0838C292.318 61.0252 292.254 60.9674 292.254 60.8501V60.6731C292.254 60.5548 292.316 60.4962 292.506 60.4086L296.314 58.7293C296.474 58.6628 296.644 58.6235 296.817 58.6129C297.005 58.6129 297.069 58.7899 297.1 58.9649L297.383 61.0809H297.508C298.579 59.4333 299.901 58.433 301.281 58.433C301.485 58.4112 301.691 58.4327 301.887 58.4962C302.082 58.5597 302.262 58.6639 302.416 58.8022C302.57 58.9404 302.694 59.1097 302.78 59.2993C302.866 59.4889 302.913 59.6947 302.917 59.9037C302.87 60.3328 302.672 60.73 302.36 61.0222C302.048 61.3143 301.643 61.4817 301.219 61.4936C300.85 61.4933 300.485 61.413 300.148 61.2579C299.885 61.0902 299.578 61.008 299.267 61.0223C298.995 61.0425 298.732 61.131 298.502 61.2801C298.271 61.4291 298.081 61.634 297.947 61.8764C297.708 62.3191 297.579 62.8142 297.569 63.3191V69.0006C297.569 69.9423 297.82 70.2375 298.45 70.2375H299.834C300.023 70.2375 300.087 70.2962 300.087 70.4434V71.1167C300.087 71.2629 300.025 71.3225 299.867 71.3225C299.648 71.3225 298.264 71.233 295.966 71.233C293.764 71.233 292.537 71.3225 292.287 71.3225C292.129 71.3225 292.065 71.2619 292.065 71.1167V70.4684C292.065 70.2914 292.129 70.2327 292.348 70.2327H293.449C293.952 70.2327 294.267 69.9971 294.267 69.4373L294.268 63.675Z" fill="white"/>
<path d="M303.458 77.6561C303.468 77.2574 303.632 76.8788 303.915 76.6033C304.198 76.3277 304.576 76.1775 304.967 76.1855C305.447 76.203 305.919 76.3229 306.351 76.5375C306.481 76.6012 306.624 76.6293 306.768 76.619C306.911 76.6087 307.049 76.5604 307.169 76.4788C308.119 74.9934 308.92 73.4145 309.56 71.7659C309.372 70.8829 305.723 61.7013 305.504 61.1992C305.157 60.4298 304.844 59.9623 304.213 59.9623H303.583C303.395 59.9623 303.33 59.8767 303.33 59.7286V59.0794C303.33 58.964 303.395 58.8735 303.583 58.8735C303.836 58.8735 304.591 58.9649 306.92 58.9649C308.743 58.9649 309.687 58.8735 310.065 58.8735C310.254 58.8735 310.318 58.9341 310.318 59.1111V59.7594C310.318 59.8777 310.256 59.9643 310.098 59.9643H309.626C309.311 59.9643 309.06 60.1432 309.155 60.5846C309.249 61.1723 311.136 67.176 311.451 67.8243H311.576C312.142 66.7038 314.345 61.7032 314.501 61.0829C314.689 60.3201 314.406 59.9643 313.84 59.9643H313.336C313.147 59.9643 313.085 59.8787 313.085 59.7594V59.1111C313.085 58.9649 313.147 58.8735 313.336 58.8735C313.713 58.8735 314.343 58.9649 316.042 58.9649C317.113 58.9649 317.867 58.8735 318.15 58.8735C318.308 58.8735 318.37 58.9649 318.37 59.1111V59.7296C318.37 59.9066 318.308 59.9633 318.182 59.9633H317.804C317.591 59.9581 317.379 60.0004 317.184 60.0871C316.988 60.1738 316.814 60.3029 316.672 60.4654C316.042 61.2348 313.903 65.6448 311.638 70.4136C310.064 73.5924 308.743 76.3596 308.177 77.3012C307.932 77.8636 307.537 78.3442 307.036 78.688C306.536 79.0318 305.95 79.2249 305.347 79.2451C304.215 79.2451 303.461 78.5968 303.461 77.6552" fill="white"/>
<path d="M89.0044 5.74121C91.2948 7.65669 93.1278 10.0784 94.3645 12.8229C95.6012 15.5675 96.2093 18.5629 96.1428 21.5825C96.2093 25.8445 94.8382 30.0006 92.259 33.3553C88.8997 37.6364 84.3867 40.9537 76.5125 40.9537C72.325 40.8468 68.237 39.6299 64.6508 37.4229C60.9246 35.1212 56.988 29.2887 56.988 21.5825C57.0649 16.7259 58.7689 12.0422 61.817 8.30929C66.4356 2.53159 72.1042 1.46011 76.6182 1.46011C81.1193 1.30982 85.5208 2.83113 89.0044 5.74121ZM68.8497 6.81268C65.6479 9.97037 64.1216 15.4816 64.1216 19.7627C64.1216 33.6765 72.525 38.6001 76.9333 38.6001C87.5347 38.6001 89.2148 26.6138 89.2148 22.1173C89.2148 10.4522 81.4472 3.81659 76.4088 3.81659C75.4654 3.81659 72.4193 3.28085 68.8497 6.81268Z" fill="white"/>
<path d="M103.995 28.1941C103.654 29.1944 101.564 35.4078 101.354 36.5851C101.29 36.8854 101.261 37.1926 101.27 37.4998C101.27 38.0634 101.952 38.5415 102.806 38.5415H104.598C104.94 38.5415 105.025 38.629 105.025 38.7608V39.8467C105.025 40.1073 104.94 40.2824 104.684 40.2824C104.086 40.2824 102.296 40.1506 99.3068 40.1506C96.1512 40.1506 95.2136 40.2824 94.6155 40.2824C94.3598 40.2824 94.3598 40.0198 94.3598 39.7168V38.8896C94.3598 38.629 94.4457 38.5415 94.6155 38.5415H95.8956C97.0899 38.5415 97.8578 37.9336 98.6256 36.5851C99.052 35.8022 102.122 27.9767 103.401 24.3228C103.7 23.4571 107.155 14.0629 107.58 12.9309C107.666 12.4961 107.921 11.7132 107.666 11.4525C107.53 11.3091 107.441 11.1269 107.41 10.9303C107.41 10.7571 107.494 10.5821 107.837 10.4955C109.356 10.0234 110.784 9.2881 112.059 8.32179C112.315 8.06114 112.485 7.88705 112.698 7.88705C112.953 7.88705 113.125 8.4074 113.21 8.66805C113.978 11.3612 117.303 21.1054 118.071 23.8861C119.095 27.2765 121.825 35.3655 122.421 36.5389C122.651 37.0964 123.028 37.5781 123.51 37.9311C123.991 38.2842 124.559 38.4947 125.151 38.5395H126.51C126.766 38.5395 126.851 38.6271 126.851 38.8444V39.7591C126.851 40.0179 126.767 40.2814 126.424 40.2814C125.656 40.2814 124.805 40.1496 120.113 40.1496C116.529 40.1496 115.08 40.2814 114.142 40.2814C113.801 40.2814 113.716 40.0188 113.716 39.7591V38.8896C113.716 38.629 113.801 38.5415 114.057 38.5415H115.165C116.359 38.5415 116.7 38.1067 116.445 36.9333C116.103 35.3674 114.397 29.8013 113.885 28.1932L103.995 28.1941ZM113.462 26.4551C113.035 25.1942 110.136 15.2806 109.877 14.4102C109.707 13.8879 109.621 13.6272 109.45 13.6272C109.196 13.6272 109.023 13.8023 108.897 14.1928C108.727 14.7583 104.888 25.4548 104.589 26.4551H113.462Z" fill="white"/>
<path d="M137.454 28.4105C137.454 30.5843 137.538 36.9333 137.581 37.5844C137.583 37.7131 137.61 37.8402 137.66 37.9583C137.71 38.0763 137.783 38.1829 137.874 38.2719C137.965 38.361 138.073 38.4305 138.191 38.4767C138.309 38.5228 138.434 38.5445 138.561 38.5405H140.182C140.352 38.5405 140.523 38.628 140.523 38.7598V39.9332C140.523 40.1064 140.441 40.2814 140.269 40.2814C139.755 40.2814 138.477 40.1496 134.81 40.1496C131.143 40.1496 129.778 40.2814 129.353 40.2814C129.183 40.2814 129.095 40.1939 129.095 39.9765V38.8021C129.09 38.7666 129.094 38.7305 129.105 38.6967C129.117 38.6628 129.136 38.6321 129.161 38.6069C129.185 38.5816 129.216 38.5626 129.249 38.5513C129.282 38.5399 129.318 38.5366 129.353 38.5415H130.886C131.654 38.5415 131.996 38.1942 132.039 37.7162C132.081 37.368 132.168 29.4541 132.168 24.0631V21.5412C132.168 20.7582 132.081 12.4086 132.081 12.0191C132.081 11.4968 131.825 10.9755 130.802 10.9755H129.52C129.266 10.9755 129.181 10.888 129.181 10.6706V9.49619C129.181 9.32306 129.265 9.23553 129.52 9.23553C130.032 9.23553 131.312 9.3673 134.979 9.3673C138.306 9.3673 139.672 9.23553 140.268 9.23553C140.522 9.23553 140.609 9.32306 140.609 9.54043V10.6263C140.609 10.887 140.523 10.9745 140.268 10.9745H138.904C138.048 10.9745 137.622 11.2352 137.622 12.2355C137.622 12.9309 137.454 19.7146 137.454 21.8018V23.7139H138.223C138.765 23.7053 139.284 23.4874 139.675 23.1041C140.482 22.4087 147.905 12.9732 148.373 12.322C148.971 11.4516 148.457 10.9293 147.689 10.9293H147.053C146.881 10.9293 146.838 10.8437 146.838 10.6244V9.58371C146.838 9.32306 146.922 9.23553 147.093 9.23553C147.605 9.23553 149.309 9.3673 152.127 9.3673C153.831 9.3673 155.282 9.23553 155.793 9.23553C156.048 9.23553 156.134 9.32306 156.134 9.54043V10.6263C156.139 10.6731 156.133 10.7203 156.117 10.7645C156.101 10.8087 156.076 10.8488 156.044 10.882C156.011 10.9153 155.972 10.9408 155.928 10.9568C155.885 10.9727 155.839 10.9788 155.793 10.9745H154.944C154.096 10.99 153.269 11.2458 152.556 11.7132C150.55 13.0598 144.538 20.1484 142.917 22.3222C144.624 24.4978 153.324 35.9801 154.601 37.4988C154.922 37.8594 155.319 38.1406 155.762 38.3211C156.205 38.5017 156.683 38.5767 157.159 38.5405H158.102C158.145 38.5352 158.188 38.5392 158.229 38.552C158.27 38.5649 158.307 38.5864 158.34 38.6152C158.372 38.6439 158.398 38.6793 158.416 38.719C158.434 38.7587 158.443 38.8017 158.444 38.8454V39.9332C158.444 40.1939 158.356 40.2814 158.102 40.2814C157.676 40.2814 156.14 40.1496 152.215 40.1496C148.635 40.1496 147.015 40.2814 146.417 40.2814C146.247 40.2814 146.159 40.1939 146.159 39.9332V38.8454C146.155 38.8099 146.158 38.7738 146.17 38.74C146.181 38.7061 146.2 38.6754 146.225 38.6501C146.25 38.6249 146.28 38.6059 146.313 38.5946C146.347 38.5832 146.382 38.5799 146.417 38.5847H147.015C147.146 38.5871 147.276 38.5545 147.391 38.4902C147.506 38.4259 147.602 38.3321 147.671 38.2181C147.74 38.1041 147.778 37.9738 147.782 37.8401C147.787 37.7063 147.756 37.5738 147.695 37.4556C147.269 36.5851 140.36 26.4984 139.677 25.8011C139.487 25.6054 139.261 25.4506 139.012 25.3462C138.762 25.2417 138.494 25.1897 138.225 25.1932H137.459L137.454 28.4105Z" fill="white"/>
<path d="M181.636 26.13C181.636 29.3416 181.742 35.3357 181.847 36.1379C182.005 37.2074 182.372 38.1712 183.211 38.1712H185.836C186.151 38.1712 186.257 38.3318 186.257 38.5453V39.8303C186.257 40.2045 186.099 40.3112 185.678 40.3112C184.996 40.3112 183.947 40.1506 178.488 40.1506C173.344 40.1506 172.084 40.3112 171.559 40.3112C171.246 40.3112 171.14 40.1506 171.14 39.8303V38.5982C171.14 38.3318 171.246 38.1712 171.455 38.1712H173.24C174.395 38.1712 175.234 37.8499 175.234 36.4043C175.338 31.0536 175.338 26.0242 175.338 20.992V6.91848C175.338 5.09871 174.604 4.24268 173.659 4.24268H171.613C171.35 4.24268 171.246 4.13688 171.246 3.92143V2.47869C171.246 2.21226 171.35 2.10454 171.613 2.10454C171.98 2.10454 173.659 2.26516 178.803 2.26516C181.743 2.26516 186.572 2.10454 188.142 2.10454C191.626 1.98678 195.029 3.18803 197.695 5.4767C198.552 6.21797 199.247 7.13437 199.736 8.1667C200.224 9.19902 200.494 10.3243 200.529 11.4699C200.529 18.2113 196.54 20.992 190.768 21.9538V22.1683C192.033 22.6541 193.128 23.5108 193.917 24.6305C194.547 25.4866 197.8 30.5179 198.219 31.1604C199.604 33.2695 201.093 35.3051 202.681 37.2593C203.763 38.0469 205.087 38.409 206.409 38.2789C206.724 38.2789 206.83 38.4395 206.83 38.653V39.7774C206.83 40.1516 206.724 40.3122 206.409 40.3122C205.989 40.3122 204.625 40.1516 201.265 40.1516C199.796 40.1516 197.802 40.2593 196.643 40.3122C195.739 39.408 194.961 38.3814 194.332 37.2613C193.388 35.7627 191.34 31.9106 190.869 31.0546C190.344 30.0928 188.874 27.6295 188.039 26.4522C186.726 24.5796 185.518 23.1349 183.315 23.1349C183.104 23.1349 182.212 23.1897 181.634 23.2426L181.636 26.13ZM181.742 21.3142C182.401 21.433 183.067 21.5044 183.736 21.5277C191.925 21.5277 193.603 14.7862 193.603 12.324C193.642 10.0933 192.812 7.93795 191.294 6.33081C189.349 4.70555 186.876 3.88414 184.365 4.02915C183.719 3.96585 183.069 4.07664 182.478 4.3504C182.259 4.53881 182.088 4.77801 181.978 5.04795C181.869 5.31789 181.824 5.61071 181.848 5.90183L181.742 21.3142Z" fill="white"/>
<path d="M218.682 26.0637C218.682 26.4984 218.768 36.4985 218.768 36.9775C218.768 38.3703 219.45 38.5434 220.474 38.5434H222.266C222.309 38.5376 222.352 38.5412 222.393 38.5539C222.434 38.5666 222.472 38.5881 222.505 38.617C222.537 38.6458 222.563 38.6814 222.581 38.7213C222.598 38.7612 222.608 38.8045 222.608 38.8483V39.9342C222.608 40.1949 222.438 40.2824 222.181 40.2824C221.669 40.2824 219.963 40.1506 215.955 40.1506C211.691 40.1506 209.814 40.2824 209.388 40.2824C209.132 40.2824 209.047 40.1949 209.047 39.9775V38.804C209.047 38.629 209.131 38.5434 209.388 38.5434H211.093C211.947 38.5434 212.885 38.4559 213.055 37.2824C213.141 36.6726 213.225 27.2794 213.225 24.9326V21.8865C213.225 20.8429 213.141 13.0155 213.098 12.4509C212.97 11.4073 212.543 10.9726 211.349 10.9726H209.131C208.875 10.9726 208.791 10.8851 208.791 10.6677V9.54043C208.791 9.32306 208.875 9.23553 209.047 9.23553C209.559 9.23553 211.775 9.3673 215.954 9.3673C220.047 9.3673 221.413 9.23553 222.01 9.23553C222.265 9.23553 222.351 9.41058 222.351 9.62796V10.6283C222.355 10.6751 222.35 10.7223 222.334 10.7666C222.318 10.8109 222.293 10.8511 222.261 10.8844C222.228 10.9176 222.189 10.9431 222.145 10.959C222.102 10.975 222.056 10.9809 222.01 10.9764H220.39C219.452 10.9764 218.77 11.3237 218.77 12.1499C218.77 12.5846 218.684 22.1529 218.684 22.6723L218.682 26.0637Z" fill="white"/>
<path d="M229.957 20.1494C229.957 19.0202 229.788 12.8462 229.702 12.1922C229.618 11.1486 229.02 10.9745 228.168 10.9745H225.864C225.822 10.9799 225.778 10.9761 225.737 10.9633C225.696 10.9505 225.659 10.929 225.626 10.9002C225.594 10.8714 225.568 10.836 225.55 10.7962C225.532 10.7565 225.523 10.7133 225.523 10.6696V9.49619C225.523 9.32306 225.694 9.23553 225.908 9.23553C227.144 9.23553 229.36 9.3673 232.346 9.3673C234.48 9.3673 236.612 9.23553 238.743 9.23553C244.458 9.23553 249.063 9.80108 252.987 13.1925C254.558 14.5395 255.805 16.2352 256.632 18.1498C257.46 20.0643 257.847 22.1466 257.763 24.2372C257.861 26.3257 257.54 28.4128 256.822 30.3712C256.104 32.3297 255.002 34.1186 253.584 35.6291C249.406 40.2391 242.753 40.2824 239.853 40.2824C238.232 40.2824 233.882 40.1506 231.75 40.1506C227.996 40.1506 226.291 40.2824 225.694 40.2824C225.523 40.2824 225.439 40.1949 225.439 39.89V38.804C225.439 38.629 225.523 38.5415 225.779 38.5415H228.253C229.106 38.5415 229.533 38.1942 229.659 37.4556C229.788 36.5851 229.958 26.7591 229.958 23.4542L229.957 20.1494ZM235.334 24.4103C235.334 24.9326 235.42 32.3232 235.42 35.0212C235.398 35.8977 235.668 36.7561 236.186 37.4556C236.699 38.2808 238.32 38.629 239.94 38.629C241.649 38.6364 243.337 38.2443 244.874 37.4828C246.411 36.7213 247.757 35.6107 248.807 34.2363C250.857 31.358 251.934 27.879 251.877 24.3228C251.832 20.8599 250.628 17.5165 248.466 14.8459C245.938 12.2473 242.503 10.7772 238.914 10.7581C237.982 10.6683 237.044 10.8178 236.183 11.1929C235.897 11.4105 235.675 11.7036 235.54 12.0404C235.405 12.3773 235.363 12.7454 235.417 13.105C235.332 14.9324 235.332 20.5851 235.332 21.2805L235.334 24.4103Z" fill="white"/>
<path d="M289.417 35.8464C289.417 36.4562 289.589 36.89 289.589 37.2372C289.589 37.5844 289.331 37.7595 288.905 37.9345C285.174 39.9283 281.005 40.9159 276.794 40.8037C272.615 40.8037 267.411 39.3254 264.511 35.7599C261.87 32.8032 260.588 29.0655 260.588 23.9294C260.594 21.8566 261.03 19.8086 261.868 17.9201C262.706 16.0316 263.926 14.3453 265.449 12.9722C268.521 10.1887 272.442 8.71133 277.562 8.71133C280.624 8.61219 283.648 9.42866 286.26 11.0601C286.773 11.4506 287.028 11.3208 287.284 10.9726L287.796 10.2772C288.009 9.97229 288.137 9.84244 288.392 9.84244C288.819 9.84244 288.905 10.1012 288.905 10.4503L289.331 19.1462C289.331 19.4944 289.331 19.7118 289.161 19.756L288.138 19.9291C287.882 19.9734 287.797 19.8416 287.711 19.5809C286.985 17.3658 285.824 15.3242 284.3 13.5801C283.389 12.6054 282.29 11.8323 281.073 11.3089C279.856 10.7856 278.546 10.5231 277.225 10.5378C275.84 10.4782 274.46 10.7544 273.2 11.3438C271.94 11.9331 270.835 12.8189 269.975 13.9283C267.705 16.6788 266.464 20.1611 266.474 23.7562C266.474 28.8866 267.84 33.3207 270.311 35.8435C271.186 36.7906 272.244 37.5423 273.419 38.0513C274.593 38.5602 275.858 38.8152 277.134 38.8002C279.131 38.9379 281.129 38.549 282.935 37.671C283.873 37.1487 283.957 35.932 283.957 33.6708V30.4967C283.957 28.9309 283.53 28.4961 282.423 28.4961H280.63C280.375 28.4961 280.29 28.3211 280.29 28.1037V27.1034C280.29 26.8427 280.374 26.7562 280.544 26.7562C281.056 26.7562 283.103 26.886 286.601 26.886C290.186 26.886 291.633 26.7562 292.058 26.7562C292.4 26.7562 292.486 26.8418 292.486 27.0592V28.147C292.486 28.4076 292.4 28.4952 292.144 28.4952H290.694C289.926 28.4952 289.414 28.8424 289.414 30.1033L289.417 35.8464Z" fill="white"/>
<path d="M302.512 27.542C302.555 29.8889 302.641 34.1507 302.641 34.9336C302.641 37.1949 303.407 38.0654 304.345 38.326C305.435 38.5812 306.553 38.6978 307.672 38.6732C308.44 38.6732 310.402 38.5876 311.256 38.5001C312.53 38.33 313.736 37.82 314.754 37.0218C315.522 36.3264 317.91 33.4553 318.716 32.4117C318.886 32.1944 319.016 32.153 319.188 32.2386L319.87 32.6734C319.999 32.7609 320.04 32.8907 319.956 33.1091L317.908 39.6293C317.849 39.8312 317.723 40.0063 317.553 40.1252C317.382 40.2441 317.176 40.2996 316.97 40.2824C316.544 40.2824 313.217 40.1506 298.973 40.1506C295.819 40.1506 294.284 40.2824 293.516 40.2824C293.26 40.2824 293.174 40.1948 293.174 39.9342V38.8896C293.174 38.629 293.26 38.5424 293.602 38.5424H295.052C297.014 38.5424 297.184 38.2818 297.184 36.6717V22.0634C297.184 18.497 297.098 13.1069 297.014 12.4971C296.842 11.3237 296.416 10.9764 295.136 10.9764H293.517C293.347 10.9764 293.261 10.8889 293.261 10.6715V9.54043C293.261 9.32305 293.304 9.23553 293.517 9.23553C294.454 9.23553 295.99 9.41058 299.486 9.3673H300.681C302.557 9.3673 312.366 9.27977 314.242 9.27977C314.924 9.27977 315.735 9.23553 315.948 9.23553C315.987 9.22942 316.027 9.23134 316.066 9.24118C316.104 9.25102 316.14 9.26859 316.172 9.29285C316.204 9.31712 316.231 9.34759 316.251 9.3825C316.271 9.41741 316.284 9.45606 316.289 9.49618C316.459 10.0617 318.082 15.9751 318.251 16.4108C318.335 16.6714 318.293 16.8013 318.122 16.8917L317.354 17.2389C317.227 17.2831 317.099 17.2389 316.971 17.0215C316.801 16.7609 313.304 12.7606 312.28 12.1528C311.302 11.5184 310.19 11.1294 309.036 11.0178L302.554 10.8447L302.468 23.41C304.091 23.421 305.713 23.3491 307.329 23.1945C307.766 23.1432 308.181 22.9699 308.527 22.6935C308.873 22.4172 309.138 22.0487 309.291 21.6287C309.663 20.8664 309.894 20.0408 309.973 19.1933C309.968 19.1465 309.973 19.0992 309.989 19.0549C310.004 19.0105 310.029 18.9702 310.062 18.9369C310.094 18.9035 310.134 18.878 310.177 18.8622C310.221 18.8463 310.267 18.8405 310.313 18.8451L311.422 18.9308C311.592 18.9308 311.72 19.0183 311.676 19.2789C311.592 19.9743 311.592 22.8454 311.592 23.9746C311.592 25.7136 311.762 27.8017 311.848 28.7578C311.848 28.9751 311.762 29.0184 311.506 29.0627L310.569 29.2358C310.399 29.28 310.313 29.1915 310.227 28.9309C310.044 28.1926 309.817 27.4666 309.545 26.7571C309.358 26.327 309.062 25.9555 308.687 25.6806C308.312 25.4058 307.873 25.2376 307.413 25.1932C305.877 25.0182 303.828 24.9306 302.466 24.9306L302.512 27.542Z" fill="white"/>
<path d="M3.41022 43.06C4.26145 43.0783 5.08719 42.7633 5.71766 42.1799C7.52796 40.8516 8.0185 40.2476 8.28736 39.5012C8.28736 39.5012 8.51659 38.8876 7.20061 37.8238C5.72427 36.6311 1.29239 34.0409 1.29239 34.0409C1.60936 33.8582 2.56309 34.0775 3.39418 33.8351C2.63768 33.3372 1.93671 32.7567 1.30371 32.1038C0.735833 31.5813 0.290299 30.9354 0 30.2138C1.10065 30.4285 2.14912 30.8619 3.08571 31.4892C3.08571 31.4892 4.83468 32.5751 4.30452 31.1602C3.83284 29.8954 3.51305 29.7752 3.51305 29.7752C3.51305 29.7752 6.50442 30.058 9.2675 30.6514C12.0032 31.2449 15.6285 33.6283 16.8605 32.2009C18.0916 30.7467 19.6406 28.2805 16.37 26.0164C14.2066 24.4504 11.7347 23.3837 9.126 22.8905C7.6096 22.4475 6.06937 22.0942 4.513 21.8324C3.87388 21.6897 3.27927 21.3881 2.78206 20.9545C2.28486 20.5209 1.90048 19.9687 1.66313 19.3471C1.66313 19.3471 5.07147 21.2775 5.41673 19.7251C5.56689 19.0253 5.52656 18.297 5.3001 17.6189C5.07365 16.9408 4.66968 16.3387 4.13189 15.8778C3.42402 15.1262 2.76838 14.3253 2.16971 13.4809C2.16971 13.4809 2.27725 13.7069 4.0451 13.9503C5.78841 14.1965 5.88652 15.5527 5.78841 14.1965C5.67145 13.2747 5.34873 12.3925 4.84506 11.6178C4.84506 11.6178 6.09217 12.4084 7.96473 13.4241C9.83728 14.4398 11.8844 16.7242 12.7673 15.7181C13.6654 14.7111 14.6937 14.3167 13.3079 12.1593C12.169 10.2165 11.1978 8.17649 10.4052 6.06231C10.9089 6.47263 11.507 6.74509 12.1428 6.85389C11.8808 5.61435 11.4932 4.40591 10.9863 3.248C11.7637 3.28436 12.5001 3.61416 13.0522 4.17328L14.3729 5.20244C14.6157 4.79086 14.7718 4.33229 14.8314 3.85588C15.8852 4.65298 16.8085 5.61518 17.5671 6.70673C18.1095 7.81476 20.5009 9.42005 20.3028 7.83784C20.2196 6.98841 19.9198 6.17599 19.4331 5.48137C19.9893 5.7039 20.5081 6.01347 20.9707 6.39895C20.9707 6.39895 21.9697 6.1835 21.3235 4.25984C20.9403 3.11946 20.6574 1.94652 20.4783 0.754944C21.6235 1.47439 22.8367 4.14923 24.3083 4.74461C24.3979 4.23868 24.131 3.13643 24.2187 2.82672C24.7644 3.43618 25.1832 4.15209 25.45 4.93122C25.7167 5.71035 25.8257 6.53652 25.7705 7.35982C25.6384 10.3578 25.8403 13.1577 25.3875 15.6469C24.8753 18.5026 26.7582 22.5144 28.327 20.6186C29.8967 18.7411 30.3231 16.8175 31.0391 14.2417C31.6044 12.3369 32.6897 10.6355 34.1682 9.33637C34.1682 9.33637 33.4258 11.1321 33.9249 11.7034C34.4909 10.5829 34.9003 10.9042 35.9399 9.58741C37.2385 7.83999 38.8609 6.36945 40.7151 5.25918C40.0161 6.09026 39.4463 7.02578 39.0256 8.03309C38.5728 9.38735 39.1708 11.7419 39.835 10.6156C40.3123 9.79567 40.985 9.11185 41.7905 8.62751C41.7905 8.62751 42.0141 9.89616 40.3821 13.5607C39.5048 15.5373 36.9238 17.7379 38.3652 18.718C40.0331 19.8309 41.1255 20.1012 42.2103 19.5192C42.8778 19.0907 43.6393 18.8379 44.4263 18.7834C44.3489 19.2249 43.7725 19.4567 43.6659 19.9877C43.7801 20.2762 44.9206 19.0845 46.1932 19.0258C44.5791 22.1498 42.8914 22.3922 42.9678 23.1376C43.4961 23.5012 44.6574 23.3204 45.2611 23.9533C43.5194 24.2258 41.8138 24.6998 40.1774 25.3662C37.9545 26.7268 36.1101 28.645 34.8201 30.9381C33.2089 33.7274 31.9674 40.8805 35.4304 37.7834C38.8633 34.6623 42.0688 28.646 42.0688 28.646C42.0688 28.646 41.8075 31.5931 43.1442 30.9313C44.6237 29.9662 46.0213 28.8765 47.3224 27.6736C47.0551 29.3403 46.5092 30.9478 45.7083 32.426C44.8347 34.0688 44.2499 35.1778 44.4102 36.2676C44.6376 36.6321 45.2404 35.2894 48.677 34.5555C47.6459 36.0639 46.3995 37.4067 44.9791 38.5394C42.632 40.3063 40.4698 42.4098 39.9793 44.1988C39.4548 46.1042 41.4707 48.6386 44.1404 46.2898C45.608 45.0394 46.7885 43.4759 47.5988 41.7096C48.3343 39.9916 49.2379 38.3537 50.2958 36.8206C50.3543 37.6837 50.5709 38.528 50.9345 39.3098C51.291 39.4906 51.7778 38.8501 54.489 38.1056C54.4607 41.345 52.7495 42.9051 53.1447 43.363C53.1447 43.363 53.5221 43.9016 54.6541 43.6111C56.3474 43.1716 56.4276 43.2918 56.4276 43.2918C54.5736 45.5766 52.1783 47.3412 49.4685 48.4183C46.9375 49.4696 36.9662 53.2486 38.5407 59.2475C38.8718 60.4864 43.3999 67.8703 50.0628 68.2358L51.2156 68.1723C51.9052 68.0762 52.2014 67.9627 52.3184 68.1156C52.4353 68.2685 52.4127 68.4859 52.5419 69.2698C52.7457 70.5106 51.2929 70.1749 48.3497 69.4468C43.0725 68.1291 39.1746 62.4408 37.4936 59.9401C36.4246 58.5904 35.1353 57.4389 33.6824 56.5362C31.3685 55.3046 28.8022 54.6472 26.1922 54.6173C22.0075 54.5827 17.702 56.0302 15.6729 56.0793C16.2389 55.557 17.7077 55.1925 18.2199 54.7145C17.4162 53.9209 13.605 53.667 12.5494 52.887C13.8494 51.7155 16.7662 51.5346 17.3341 50.9729C16.967 50.3639 16.8177 49.6442 16.9115 48.9358C16.9115 48.9358 17.9152 49.7206 20.9321 49.7793C23.1461 49.8236 25.4479 50.0198 26.5827 48.9291C27.9468 47.6037 28.2459 45.7021 26.595 44.5585C24.9778 43.3066 22.9413 42.7563 20.9283 43.0273C18.2812 43.2264 9.57692 45.4203 9.57692 45.4203C7.26948 45.8733 4.10547 43.7544 3.41211 43.0638" fill="white"/>
</svg>
